<mxfile host="app.diagrams.net" modified="2023-05-21T19:27:14.944Z" agent="Mozilla/5.0 (X11; Linux x86_64; rv:109.0) Gecko/20100101 Firefox/113.0" etag="O2R2521EMDIPLiwYiUnr" version="21.3.2" type="device">
  <diagram name="Page-1" id="7mJRO7g_LAMD0Dw2FQ8f">
    <mxGraphModel dx="956" dy="531" grid="1" gridSize="10" guides="1" tooltips="1" connect="1" arrows="1" fold="1" page="1" pageScale="1" pageWidth="850" pageHeight="1100" math="0" shadow="0">
      <root>
        <mxCell id="0" />
        <mxCell id="1" parent="0" />
        <mxCell id="MZkw5Bfd-R0kXMftx8xv-3" style="edgeStyle=orthogonalEdgeStyle;rounded=0;orthogonalLoop=1;jettySize=auto;html=1;strokeWidth=4;sourcePerimeterSpacing=0;targetPerimeterSpacing=10;endSize=6;" edge="1" parent="1">
          <mxGeometry relative="1" as="geometry">
            <mxPoint x="290" y="394.5" as="sourcePoint" />
            <mxPoint x="360" y="394.5" as="targetPoint" />
          </mxGeometry>
        </mxCell>
        <mxCell id="MZkw5Bfd-R0kXMftx8xv-1" value="" style="shape=image;verticalLabelPosition=bottom;labelBackgroundColor=default;verticalAlign=top;aspect=fixed;imageAspect=0;image=data:image/png,iVBORw0KGgoAAAANSUhEUgAAA3AAAAFICAMAAAAmguwMAAAAgVBMVEUfd7SoqKgme7cvgbn09PRNTU2UlJT////+/v/6+/s3hry91+lBjMCCs9VzqtDk7/ZmoszM4O6vzuSPu9pLksPt9PmampqmpqbY5/Kgxd9Ul8b0+Ptdncnq6upZWVne3t7Q0NBmZmZ1dnbDw8MKIjS3t7eFhYVAQEAedLAtLS0YUHc8FrKSAAAukUlEQVR42uzdbXOqOhSG4SUQVoIIKoIK5gUoMP7/P3g+WPuyj7ta67bYPvcHZ8rQ0WFyNcRMlRghdLcIlwAhgEMI4BBCAIcQwCGEAA4hgEMI4BBCAIcQwCGEAA4hgEMI4BBCAIcQwCGEAO5H5kL9x4GO9Tp4d0bfTzS77nggcArXDeDQNUnzVLw/UhgOurfg1vsiHJqgMC8ChcaFAzh01QS3N4PiqtMsW8eyXXehYd0FHHTFM7v1wNw96cKwtJOiVdzv+zXIARy6YoILh3bvWIuWVdNzO9TNINgNNmhEL5rqCK590oVhLUwzFNzv+wLgAA59Pj0UyjTqGZwSIatasBtstw/Y7d3hlnJSDHVQGA6F5nZv3d7iygEcuqJ274LJYJ/B6aFlDg27wRaCWYvJAVzfTzQXhpuGWe1bgAM4dF31fhiGp3UgOg5MHwxrlr1gN9j1oNgO7eGWUklmLgz3tWK7d24AOIBDV6zg9L6w1jZGNbVb73vuh7Y7rOHsELp+0Mc13AGc2xeuNoHbdxobAwCHPl1nAmZ2ItCN6JuCg140fcO21tLVonGSmbmrmZl50rDqjGg0B6EwmOMADl070bGU8v9HTxw7nI0ADiEEcAgBHEIAd1mBQuhnNkZwgUDoZzaR4wMnA6EDhH5gRShHOcNhvxX9yCYAh9D9WgMcQgAHcAjgAA4hgEMI4AAOoVGAU6qSzKpSklkqpZilql4eAQ4B3E3BtebJcdALEUoVCtErXgvRaO6EaDTAIYC7KTip7eC4FdYJq0VrhdOitabTotV1IR8M3KLCGELjnuGkFI6LRnGz7mrFTdEKyWHvhOSurph1N1k/CrhFlGAMoXGDYxaOw15xU0xq5j7sDHPRtIJlWwfMugj7RwG39AEOPQK4daNkPWlNIJu1E0r2vRsUTxrFzFIGAIcA7kbgAj102gnXCqtF1w42EBMn2sBMrJk82BoO4NDowTmxH5pgYkwnVWfMWnFrRBGwMyJ8/m4JgEMAdytwHzzh8fOjAA4B3O3WcOfvOgEOARzAARwCOIBDAAdwCAEcwCGAAzgEcAAHcAjgxpXcegCHAO5e5TEBHAK4e5USwCGAAzgEcACHEMABHAI4gEMAB3AAhwDuLkmAQwB3t1Q2AzgEcHe7dSzjj8DJfCExlBDA3QkcZ/EGQwkB3L3AzaIFhhICuLuB8wEOARzAIYADOARwAAdwCOB+DjhZYeMAAdx9wEnmZYSNAwRwXwdXpmfBpVnOM/r6TafElz8C3O8BJ6ebU+BoehbclJY3AZftMEsC3K8Bl/vlaXBVKu8DbudNMWAB7teAo+g0uGVcfQROVbcBN52tAA7gAG46o/wjcItddhNwKyKAAziAOwduSbuvg5NVCnAA94vBKXU5uPIGM1wS+QAHcL8X3CxTLPPN3cDFRAAHcL8InHoPjryKN34CcAjg/gU4b3sEVy3UERytAA4B3L8AR/MNRayy+SLzl8zbK8HJ5RbgAA7gzoFb0W5DEW88mseUMc8/A+7Nu5RVsgI4gAO4C8EtPIrpDTjvInCrI7jNspoDHMAB3LXg6Cw4qRKiZ3AyoxzgAA7g/iE4nhIRbbOEFixnlM+jqQQ4gAO4z4KjxWXglkREcyqP4GiVAhzAPQg4KUcBbrPcEc0/Ac5/Ay4COIB7EHDpbPl94DKK8mdwZRQRlYe7xYvA0W3A0Q6f0wBwdwQ39XbfBq6MKCoTj2KiWen7RGVeHsAl9wNHCiMW4O4IjsrvuUqbmMqIfIqJYiLP832iMo2IiCihS8ARLfIFwCGAu6SEDuAiopiI6C24+FJwyyihfE5eBnDnUssFwP1mcBFReeD1Ci7evRyYzS8Bt6WE8jlRDHBnkrlXAtxIwC023wvOP4I7FhN5/mXg5gB34ZqZVgB3W3DKOmtZaqvl66NV58GtkupbwK2iV2Pkee/Bef50U90DXFrlAAdwV4CzQ1333IraOHamNi3buhbdeXDxLv8WcH8tJvK8KIu258GtKE++Bq6cJTnAAdynwUkrnK5kvQ7CpmrCoKt13wStCB4UnD/3ZufBEaVfnOGi+Fd89SPA3X6Gq40J9aC5NVZYtsLVHfPgmFkqpR8LHBFFl4FblQAHcN+yhtPaiW4I2AkrLGvj6pZZOGZ2tRA/FVwUfw2c5wMcwF0DjpnZrIXjzmjTshW2mXAwWGaWVfBIM1x0T3BEAAdw16zhdKu7wfaNrUMV1rZvqrWxYa0ebw1HH4GTafIOnA9wAPdda7jGyaA3YcBVaHrN1do0mh8VHNGMmbn643VvXvcPttmRzBUvYPm68TevAA7grrillFKylM+Pzz/zg4OrsuzPV/ySv3rewIs5/7SZ2Zsn2gAcwF21hvt7jwouXZV/Bff6Lku1mwEcwAHcl8HJy8ClqwTgAG5U4Ib0kWe4fJkyq2V6Gly0iAHuHLhYSYC7I7in5QPPcPnSmzFPvew0ONoB3FlwXrYBOIC7aIbbzEtKmJfeLFvMT525ihIJcB+DI9oC3AjAxel4wcn0MMNtPaKEeerF3ukzy6+Byx5gWH3x054AbizgvG0czeQ4wU3LxXtw0b8BF49/dSOns3wjAe7xwdE2Jn8xTnAzmr4BJ6fe3878+eCqxMu+8s+yL+DSjQQ4gLsEHP9mcCrxkpuAm5cpwAHcyZLkLTiptn8F59FnwS3Kt+DG/zkLVeIltNle+0JlSkSrKTPH/gbg7gJuduov23LM4OLoDbgyW370O58FV77fOB/7IJRV4iWUUZpeN7imCRHRjpljb8Ppj9ohGCs4b37i8PwITlXjA0f0H3t3t+WmjoQB9FtSMqV/kIAsgeiT08kka+b9X3AuAAM2tsE2bmdO+7rbxkLbpZJKAuEAjrGL/7IV3OzNlHtIGUbm94qUoi4dc7DQ6jYqXZl3S0QGnhxK+Qlub3D/WTonrR3A+SeXzK8EN0a4/nSvG8EJP4/v1ezNmFKP+E4F9lpfkZZ34MKNz1nuwSUvDDy1YJ/gPhhcQPaK4LoIV+BecLGcVTeL4rg47BHfye4GLo3gtM5uB1eU/hPcR4OzqgMXXxFcvRZce7kbeuWIqnHI5/4scNJyxywKBNS45ZSxHpxj4QAupU9wu4MTC+A4m4CTMZHQ8WXAFVnZpLQCHC4XU2rliAql14MTt4DLqlvuvdBerIhwAzi4zTFOl10FXDsB5wr5CW5ncJmtTsEBHTjfRQJLsWxfCZzJmzXgLu/6ruGIHKtXgxP19mSpQM1uGpirvFoV4VwHDpsrtQ/HSbBg4KsGTJIqq09wO4PTJ+PGDhzzFOAkkdDcUjR7g8uCXAnOZqVqjN0dHD+CIqQqNt9GC3vbwPwquD7ClT24/D5wgX2Cewo4WcDr+Q93M9TlByhNRIFb4XcH57heH+H40FvuA5dXl8DhuP4i3VBgWsDtBE5a7mBgenDNRirV2Nq1ga8BJkmp7BPcruCU49B8vuLEh7r8ABY6cLUz5c63wrGwHtzhqQPsLnC8FZfAdUd3yWEKUERub4hwDWKmr/6fCEd/cw2ckJY7qAO4bdsbhCzGpitGcP8vu5JeFhwAaPD5J0zBVUSa25Zz2B3z6ai3gVv3h1fBASvARWZJ24oolrgtwgXL2ms/V1nDcrk9wk3AbRtTVu1kjK4+wb0AOCcCWOMShQ7cjqvgomAbwNmHgxNJnAfnkVPDNJHGdXDxOO8r0L2tvtICtQJmDazatRHOwgJA6W8Fx4HwCe554NyFCMdMJgJvzG7gUiaIpGVpQ4Rz7MHgovFXwEETecDKdLiRcWFPS5WXJ0PKZXBHK16J4xjc6gjXIl9MOS//Mpj5V30JcI97SthLg8P5CAeYGAoOqL3AFSZKkhZFvhpcCzwYnIZeAsf8DJwGbOYOPbJc6OCZUQtDSgDQVRhGjCJmRLaYNWeFreCEtKyZgUNOtLbiWhx9WW5fAVzxsD72J4KzHTitDAe42gmcVUUeU4m2XQ1OPRBcoVhdpTPgunkIj3YE58dQVZo41qnIEKuoRQdOyGmE6zSEgnvqwqM0VpCaTEKlum4BoBbbIhxYD66/8rbK7NqHCB+NyhnvwV1db98jo5D9aRGO638guHSIcPUIbrcI51SDIgOa5kPAAawuXUCdlsCxY3BNPgfnlB8arVTGxA5cKKoTcAC0N0FXRBKtJFXGimTVTVD2Q+TZRPCKHA7owQ3HJjmTrz3hvVnYQChJgX3AUxW0zYQP3Uw1EVF1/wb0PwlccQxOdRFO6Zge/yheqxoUAWBsB3BKrgFn8gBVrwIHIGRBHMDlw09y6nK+zKgqUa78yZASQGmgeFEXEa2MnDdFCl08qm8BR6fglGF8BThp43lw6PaiPvW8Sst1ahUdqhBsm/2TwOXH4DgbHrddO/XoxnaqQdl0BQ8PB4dcrAQHtxYca/o8p+S2aE7AMeVSO9ZnTsEd1tPRegOgySz6OdolcPnaCDcbHSp97oB36fshSoYgF9s6keqXF7zSTwUXqpKP4FrlXxvc27++yZ9v94Crhpsb/QhOuw7cJKdp+R4Rbqgw2gGcvA+cFkQeJTXQlT4cN+uHLEgprrsELnWdPRigjOYsON7RajUDwJ3BbMJwE7gxws0v2Zy7RaG7qhQiQlxcWAmkul9fUT/1NC/LnC451drhTwAnvrz//uvL7193gIPqV02l4wM45lrsD67Kt4Pj68FdGpZV5QCuDUCu24VOWEYiD0MNnGXtCTjOmXMZeWUTADDGcBnc/CswwGZEfjzV4aYc7vi9z3S1AoGIUmABtV0+dikwAJxsaZ4LDuAlCzwfwYkkXjfCvb2//fXl27d7wA1nVKWcjRGuOQFnHw5OYzu4DS/uzoe4rP/YWqkCUIsfbjpwcm6x219RApwDrK0GcANSw8IVcNOociO4IcKdXDeXl8AFjhrNmaGD6fKL9snnVVqAlTDowKWsVT666nUj3Nv731+///h1H7gkibKU3AiuS9v+bHBAqovL4GAY7NlpTk+xRBPnV8ZUmE6sR69aPQM3lsFFfgWcTXECbmLFrIxwJ43GmuWd7h24ml0bIbCiBWCLGNPzwIEDaHPURHmrlNfwNFQAvVyEk9/++u/XH293gVOuFrLNa8fSfF1ZTRk0AzgZ5cPBoeU7gMvy8kqEYxeyQuPJAuZ03kNnQ4QDolfzYagZc8caV8DBjX9g9OTkrLU53FKjLR5cdAB3wVqX+DYAOHJTPxFctxjIA2WGM6VreCKalBm8Ejjx9v3n31/ovgiHViYF7tjRyarMTXoT78FVtQmPB7fLqwcnzke4iwt5nuwQ62fDNp53kyYL4Hih0Oo0pidXAsq448HkYyX1XeCMvgdcn8wabkNMT9gBXrnJM8YqxziD4dBiqAB6wRzu2/eb2mUCjqNNHbhw3LfYKTjbP2v7EeB4+QRwvk53gFucYJhEOH3a6Qc5+ZZrVWayx2ZtDsfPZIZnwBW4Cu4w1Da8dU+IcpM24nVQfY/j+mXByV8/vr7/THeBA5oe3KX+z3NOWZE9FBzYE8DlCzVDa8Cpy+D6CpKlYupaVpKWlhquFGaLtTncAA77gQOMynf3Jvls6HD4iS+I7GuCI6K33//+dic4BK/AL3cQnnOyCI8Ft+8ra00U3cI1EdHkQJ+HgePLWxqQX+vfSy+/NcItH2wmlgLJNXCnQ+cngIsng4ABnBDti4L78uv96+/v94JjOb8GjhkuRnDb6rzq+CHgCo4mG8CJzIVDIr4GHGsqdxXcMlUGdQs4vS3CnRkemGoJXC22RDgAUPuD0+fcF9GZrjmqOr4UuLev7z+/3PL+c3DrZglzN4CTjnV5fVpxDpxIzKWPAAeAR9GgroiIArMO7XpwwDlW18ABt4E71D2vi3DnXnEJHE/rL2iw9wHghpaowTtwfvtV7Aoufb9xKukWcKpE0AZwRWzQZUb2+pmIQrv/sXemXY3jShh+W2qosjZrsWYk22HrAc7c//8D74eEJXQIiYkNPSf6wiGHEFupx1WqFWJXj4ZlgNMS0kfeAGeOAe691TdmFuBE2uQNm9MDh3z4BT2NufTr8r3ZFr8rAd5/V+D45vL29vbXp4Hr5WGPvl4C6IQUm8O52dnbflhHcdd+ZXYAlG5eHPSb0ulFgAseAMRAXE8GXPex/1G4fDxwENIkIhrU1wL3khzX9v1ctGU9vC8BAhDQxJkDDO8uX8htu9vknDuX8vHhcSngngN3z96w3cDVrhAN7CITUeMAQLWbzeG2prVaXAI4of0mGb41sA4q5s8Dd5BvVU8ADgCISMt5gItHZhfIsZpuLuCq1JsU8vc2WZN2JUCVpHedU1zXE1EUaVENd327ulpd/lgWuE1SQsvvAedgQmu0tA0Rb1rWFKIoHBGNQqzflBYADqbbAFcA6yBkZKK8AOt68FOBi+Ij4Nr+EGfnG+CyO/pi1FzAlWqRtNwrZDH0MAkqGktE7daWBK8NkGuoz8A968GZA9/XVz9uPw+cnBAR61sig1Byedt60QFWI0nbEG9UDEoJFY6oUU8yIbDcylQB6wDUqge7wCfGoCYCxx8Dt/eBsSMnygOZyhRlPhNwCYD/qEGNfIpHOSLqxmHr/aMCrBifgRtsWCTw/Wt1f/XJXMqpS9VkFbRKo8xEtK6UfwLOVyjYhsPTrlanDLrSRPEVwPXaANYD8EJ2cgnVqqfdX2GK4qMxwPufGNsZIkNm8kA7CTh0zybcKXlrewCdORB6OCISW6OIEgQAgRfg9HNq3KxnuObmJ02a7HIC4KQCAA1nUEPTDO6pnIDHjd3Zte2bTU1WPUeclgQOSgBK4qgS1s8d9Ny0+zOBo8AJgXNj/gRw67KhXKI/pb/yyEuxRI14HV9sn8x145+AC4sAR6uLi4f7n18D3OasAicglR5DtwaOc5LPQvfWrtr82sfAywL3xyxhhioQmw8tskOB60whD+hpwAmXOUTbd1ITDfVE1IUj3aWFE7pMvPZ7l/r6YZY4ayYOIjHzAqld1w+P//z4QuA2J3GPKGRuOQRtXlud7yqUmM/AveP0GIEPpizG/QF03gFcz2Xa5XReGgWIlINHHcpAOnD5XCOEY80MoXuYMLQyckNUt82UlEQg70ViPZbZA98/7m7vLq+/ELiXYxKE7aPfKp8W5l2qvD2j9Y6Er0WMJwOn4vA7cCa4yVckBADRG6AbTRrMWPquPUbZcd2+naPteikhTSxw2nN921fTwBcAKTgkzjyvSfnv7f3Nir8DcIeHqM7rICF3dZdhOYSiP6qPF13Mazc5M3VKlw4QnTjddywAYXjdwfXN5e3UzIzu1a0wTztIjx7Ww78nd04BLgk9r5fy5sfD3dXBge/V5d19Mydw53Xa2EIpect442DVIdIqvHWuUHW2qkMyY6ZwZ5OLNQxFp9BQzm1hbprkcm75xam3+QE5MDM1TTNEa91k9s3HfrHxbl7g/r59vDgUOL67u9/88Rm4P0LNSamkUkkHHUIIQYdjAqbKiJltDiGkklJIr5WUyimlhFBK1lSV7WqISlnX104pQCllnVJGzW4E/W/ewPfD/eEnuObxhv66I+KmWZ2BO6//5poVOD4qJLB6XNH9FdHN7cXFGbjzOgN3fFiAj/nnPx9XdH9LxM1w1nB/0JK+U1KNfrTf2bXbj2ptL0rIERhH6QEY82LWiv8AcEfVHzUXv5qHByI+n+H+jNWFoDsbytCWUHLOzXCwzAqBrlohpBSiN6cXdyEAIYQ01lRvYrW6zaXoqscYks66tjlkk2IpMcQKqUMIQetojZj5WDkjcM1qvQ4tQuW/ru6urs9Okz+ENmEirX37/GTIcPIQ3Sg+UIjOjTokohz00OrYeADmhD0JhXM12LGW2jIRNc9+Sd62vNYZ/MzsKtPmLrKOdjJy/X5HJQBXZwTu+nG9Du68/PPX/TXPCpw8g3KqjYx6V8vdBFvyfqEzmZvt1hceMOFEwKnOwGRm4ny4YG/3uJxWuaRsdUHasKe/hfLK8eX8Gu6YTG6eBzjTCzgfmaTfan3227Ns/YISX6c3vjlpyQgAIrS7xaZ1uye8vd70dkd5TiAz9YqE63sptfWd7ABPRaU3+uzYNakesdtE8nP/uj+xEFBS9L5IUWOTXZo7l3J1c3PzNeU5r78SW9pU24aJ3Fb6pHv7LdsqAVjtF9YXCptqgfrddXAKVjzNGN/5xCTi/aU/Ku+sh5ue2hXbHDUzF12S8TToz87mDJOAe9qANr3cvpWdTzHlgaVqiagdZq6He3j89/Hf+y8BblMfaACXm5eGJexcWuswGWP7qqxfCsjIWQIINIyLSrFxEvAdgPjNgTOBooDaP/233VsrbYdTVXwDQOy78qLMOJxiLHGYImkvtbD5xYqqamwbZiKKT4lw807Pubq5un749SXA9WvYtO/0ti80twCqgtRb3TdqD6lpAxwvpOI2Br8pFir26zk9y3z0RAuuEgeJqPc5wngvcKbdXfHdTIkpeFGa03fuOg44WZMdXwNHw/Njs6r+rbqdfT7c9eXfXwRcZzG2POS3wtEC0AKmEL1qFBOCkZqylF3KxLVfROztxnXVBBUbK9BngyW6F6G2k3S4iESN+qgAdS9w/e/yVoFMPAW4UOYY6RGA98by7QIuc5OjfmVk89BLQABS/95ScF7gLld3VxcLazinAEj4PqXdbc9bCWigG4iowrgOAGQhbwoNMjVERE0jlwMursdcDx0894sApwpNUqS2IaKPgON2n6yOO50U+f/UnVt7m7oShr+OnI4OIJAEjQRym6SrXXv9/z+4LwDHjvHZuClXeXIBNtY7M5oZfcPyGtWmyEtcVYNxNNYp+1MAwg7Fkd0z4yWVCcjR751jWlaXcqXWP68Rg70FOBcblCa7qp8RKWNmbgvAELJi5gSrPKCTUxyN4l5M5yPtQ4AjAJM8gPSiZpfcA55r1XXAGT4DOD4KXD3rUT4VcDKQ9dHOTB6i3Wx29oQ8G9ImXUlCnGFr2aTJ+tfz8/ODD6BGtqMOfh/mfhDZFqjjqKDnRWIDhE1SJfvxr4e0KaUS76L9su1qZo6PAJ2Pqi4eyHbkOwAnZlKI8ZMBx21qmWXcK6nVm/90HQCUscGsTj5HL2WaE/ReFrjV6/e3t7efjwbuxCyhtqBW+iF07AeF3XedjWp6f+YRMWVK2FJqlN48Djh5acXPSn8H4GhmfSoalZcb1Bckc6y1LS957QU55fQf4StDjanarA/nbNRsaLewEOzqulvtAKdRnLc4hglyp4CTbSE+biFmQs928cqAzkhpO20npWSWdwDu1LIVhi+VJaPQcz/MHTkPuEO3n3MI3Qhchr9gB+t54WsfuPJ9LytjxSzNxR9iWQ/39uN24EQK56mWFqUnAXGGh9sDbmaaZrt4ej44pLS/bip9npUvDjQRCULdHFdV1PJS4LZl4LQ+J0up5wtWVh0BLuR4JnDUEC0O3N4Q5LLeSh4N5lF+KuDW//739PR0Y+FbO8lneZsgHWkKkuPRoTmyz7uCva09DtxCsSX5iJTw0ThIGc9Lm+Qwi0wTA9VFPppj03wecFSPc4uE2Hpl+7Wl/TocQW+X+gQBpEtdz0++yCNwRrLBkWbEKWkhanIx9UsDJz+qIZV5cvfXVyMW1jR5ub21Szs+C7gmsiNN4WQXnYwfLHQUR4ELy/Q35ioixTLsG4ezBjJS7mctQdcmavRdgBNBqVJnoPBlOh+4ycNtgGtCEDpb17oDhjDVw3w4wxztER+XmynmEfGGXsmrK+ATcOmGZM2yIeXLz5ef1xA3D1w4sanfAHehIZOxPwacXwK4DpYjEs+Z/Gp7/3qAt0R5Xs6tVIm0OAycADX2NHBaALll7ltflH5nJlNxhocbgBODabCyT65XhwlRPTPHAoZZqiP+3eaxWcV3i7s3ZpZuay8qhJiAE7c0tywdUn7/97+n1/X1wGmhHY9FI38szIDlK4E7sAhCsyRwAZbjgX3/FnAJmJ1HSeYQcInTJqQk8SGxr0EBRWw/ALf7BQkAkhfjfquPvBs0nOfhgGLoUsvB8VmbnTwNOTwNXN/yIy733n0HawINwGmvPi1wry/r9duXt+ergROhLibgaBa4brTlnWOudHE34GRvFgSOAiy3B7S5t4AzAMLM+CdyjeV9AUgiJE5km9x1dm/7SVVXGDeNfaR3V5aaUX4AAkDuMij16VDX/XkebgCOAHvuAktNZGZ2dBq4h+A2eLhpQ1EqIwbgupvayZYF7vua+ffzl69XA2e5MmoAjtLs3qa2g1F2zMzRdObuEfxiHu6Q2W/f8wZGA34OOOnmhobmjMSebFd3tRR7Hq7tMs8Bp1RbdVpAF74syPeJjg3HyLY/28MRYM+OKYYjo7PADYUhm4V4IHDsAAyS0LQNnPyswMnV6+u3308v335dAxyNcSLz0LxPsp+1ejVQ11P5WFb362ad1vkiwCWdDj5468ixqwFffUzc2UYz80xzhrVIbITt6tpKDRJAQcObFGIEbhqqNgFXiEIxc3QpuyhV9O1B1zu+l1PrvRrwINQgXBxyzAI39FnZnPODPZyuhqieSmV0mRGSua29ZeFeyi+/v66vqFas/vnf8I7tFN4DxP0hD+ft7GTNW68wJC0WAS4e6XPfBs4Cfu/Mvx/zrAEFFWN5tgAgKovETpchtS07QQKN1xQAZOcG4PrkdoAr3DiaXsp72Spp/LAT7CAQLk1v9HNdrOUEXP1IDxe77GUCgJpK5XSZb6+2LwicUnK1Wq1W1zUvk9e7wImHA1cOSQtPxd2Ro2NmcgNYDVcCnp2Y7bGQQXhjxrfiM1CwFYb75JRillGQpqR8MgBKrgbgNtfwnWzZLpBfbwfgCjRX/C7lpwFOVa3iBIDsAJwn84mB+/F1fZmI0Axw4/maGsb7eeBsW8P7YiEPZwrAU75/7TuetPECCHCxgd9bg5OZDcIxq0GiIXpCwWncfElmdqKw5HnQ6Ci5bZrelh+Ao2Xaf0fgjE3d5Q/Ya/BAqo3+E8ANHwdA5wfgLlEm+gMebjXICK2uBo6mdn9jW+Zd4ASARgA1G3iZFgBODsCRWQK49sSDAQ0EOK7h91Ll7x5uAK4rgdjWTWK1dd8omiDMBjgZ4872a0HgZAtoECqpqouXl9zPEXklS9SAzXVN4tHAERBbUSqnyzvcbtnC95f1z2tnfJPXEBNFwyZwGzjtGwHbAIENPPdLHP0tAVNALAFcOhrHJQAiENIEXLU70WXHw8lMOaBUrD4U0WORW6M2wH28BuDcIou07xpnBK4DY7d9OwBkmBMMYNvWilI8FjhPgFR/BXBy/bp++/r263bgNoHKVgeTsygbUMsGfpk+n3AjcHTiJOdR4LISMLYagGNVbDcSj69FpqJillWTA8J+akqN+TR5ADhaLqSUMTI31N4BuAR0FcsBOJZWuxD6B/ImN8DFz+/h1t9fvv/49nwv4Pod4LhE2YDkABwvChw9HLhQsdCVkhxDy8zbso3FRqWlryQzt7X180WG8ac9AJwA0pIdwNFcubR2gROoFXMJQ7DMtqmU4kdeiQApRamUj58cOLl6e/qtft/Nw8k54Hg54Mo/CJxh3gmdtoHbW6CVcv2xLD3mDiCRWOzE9K2k7oTPYQTOlSNwD/40fgAuqCvO4jzaw8n1jxXfkDT5ABxvA9dzWBq4AJjmLwDu1GVod6723wWc0bViDohGl8yh7v8EcJzutdldWHlZXmcWJuDiAeCIup5NlxYFTgbAlXcArrkOuLy9tm4Brur0zHL5W4CLxQicMu1mTPCj93D3u9//2buX7USVAArDJbddBQioqCB3WOA67/+CZ6AmdtSYGEHU/Q8y6tVG4UsBQtV6NMtV/QKc54WbBMpf9n1Iqc0c++aLJvs7GTUxvQHcHPCPL6m7n4h/DQ7euZmSnwicBBYP+11nLsE5KtgkAJKeDym1OPFD3Qlum/FftzVdiHR6E7iv/+Av4KRz7gnlZwHnhwEeCE5KXye4PTi5WMz7BGdHQKo7SXL0HIxm/xyc7Qnh3ATu5Baiw3LvN41wZw/rRwzu+Ah+nngLAPHjftfEfVtw+z/zQbIHt7vw3d8h5R7cP1M8XAD3ufLV5uBLd8OFsGc3gQu+DkmuezhAPTeV6i1perxIRglO7W/u0l1NiN2qj0gc9ahfR84cvCm4+WFWxQ9w6BPcPF3uwR3Ns6Gfnw9r8zE1XHp4aMadzxdarOLw1+Dm2slDZJ/g7Ohe4JYS48zffcZTxx5gMryBeypw+/1+8RWc089noxIAnjs7updRE3r4U3DhUi50Byr5LTj5LbhweTdwY90p92uoxhHBPR6cZuv+v+D8uM89x3fUEbjwGJx9GZwmhAiX2N08fKcRTtfeBdx+hIv9UCe44cC5Z8G5ni3/BdfvfGm7x/7Pggu/gNNt7QBOPwvuczGIW8C59ruNcHLmuDOCGwrcwj4LbmpLqCAd9Hx/tr8qEk6/AafFs+n34D4mS/5+BdEL4EL73UY4QCaS4IYCp6YXwOER4HZLcMcHcOHmFJwPZwdOE7rQtK/gNBHulqKL55G8FVyovdEIhxdsxOCw+Aouch8Mbv4BLpgKO/gO3CIIl1hon+C0zR7c9e/RLoMLI/2tRjiCeyg45QkRzuJHgXPFPBb65gBusbgITktD5R2NcK4QQk9/DG4Wnuxr7sYObdfeJHcDZ4cJwRHct+Dg7RcvV0GqBgenBWIe2bbnCiFEsBDx4uiuyY29exZ2Dy5S0guXiGIFYCo2Qoj45+BwSsGPwtAOwzuC830QHMH9A+5ktbuHgkvnYp54oe+cgHNTsbGFpg7gdC2C9D5k7MA5vwB3msS9wY24Pbg5wQ0Lzj95ZPgDnBcMCi4SwtY9R8zlPIa/W8DlCFzoiY0t9N1VndSPp/cHB4ShHaae0jfvAk4juIHBnXYAh9mwX8/MDuAAwBeat5An4LTFHhxkrPlAfFh7UMaf4HT7T+CcCIu5ehNwU5/gBgO33XwPbuC+gNMThSid/Qsu9XfgAmDuLvc3hgEAlrO5vQdnu0L3bgTnBtPk0srRrwguAcENBs4MRgtOLt0UgNzNybs7h/PExk6XgCPsqQMsT8bf6Se4W1eCD8PoDawdgVME97bgdudwvusAgDxc3/sywi0BR2zO3xrh6B/gbl1Pax6/izf4rjvVNIJ79xFuv1zpxwcWnwN34X9whZOKzeYP4KSU7wNuKuO5JLh3B/elX4OL0z+Ae6N8d4pX/fMyVnCe7owLXOh+lSJ/C05LAoL7KbhX7VHgytw015BNVZdAWVUlUFR58wEumifjOoebzpZ/HeEIjuAeBq7JiyxBsW3WppFt29YsMrMtt+UBnDr7lNujwCUL7cwuENmf05hs7OAauEBTBEdwjwL3X7UysK6VYZaTShpV2+ZAvfoEhxGBw9mVU5bBEbjYkVfBSWcREhzBDQquaJqmaYqsbepKdRaQt1YHVa8mFWB1CsiadjI2cJG9uALO300gdhncbDaHVB7BEdyg4Nq6ruu6kUCxzawOKm9WNVS9biug6yRQWF03NnDy3Mop/4LDNXCQABYawRHckOCkUkopZRhJszXaPCu3WWNmRV6WZmZULQBIObpDyrMdg0uX18EBgOPGBHX1gw0J7t7ncJOqztcwqirvlKrzqjOUlVeH1VKfBFz6CW4qfwZOvs39WX86npgR3J3BGWVZKCArSwMwDj8PqxNfAhelYwW3O1C8Do79BNwLv7exfvF9YRyYjRCcrhMcI7jBwLnhD8CFBMcI7i7gwjS4Di4OfO5s7OnARfZ0dOCCWXQVnFRLyZ2NPR04uVTjAwdcH+EYe0Zwo2qZCiFsm+AYwQ1RMtWECEOCYwQ3zBDnChG6BMcIbpgcjnCM4IbLJzhGcATHCO5lwfEcjhEcRzhGcC8JLiA4RnCDgdMcHlIyghsMnB5xhGMENyA4jnCM4B4ELko5RRAjuMEOKbHkjCWM4AYb4RgjOIJjBEdwjOAIjuAYwREcIziCIzhGcATHCI7gGCM4gmMER3CM4AjuIjg/JDhGcIOBU86M4BjBDQUOAMExgiM4RnAExwiO4AiOERzBMYIjOIJjBEdwjOAIjjGCIzhGcATHCI7gCI4RHMExgiM4xgiO4BjBERwjOIIjOEZwBMcIjuAIjhEcwTGCO6mstw1gWHlVQK3yqpRykleNVE2et4rgGMHdFVzR5i0wyQsrV41Zrk1VbsvWLMptWZolwTGCu+8hpVG1QL2W2bboOpmZhVXDyJtJBVmvAUBKgmME90dwqlmvV+t1AaNqIasW2Jb1GoZZdhaSql3VkJ0FIFuvrCcDN/Mi7kpsXOBka1mWZe3AoZpAbYt6BcMsug5G1a5roF4ByCbr1ZOBk4nkrsTGdkgppZSAyvLWkKs6a03V5llrGo1ZlGZRmkVhNs95DsfYaM/hyvy/bW0UVW62MGrTXEtVm+YqMSzT7AyCYwR3T3BSZVlmSBiZISGTzFCAyrKPnwTHCO6eI9yO3cePsxEcI7h7grsSwTGCIziCYwT3wOTSDrgLMYIbTFy05C7ECI4xgiM4xgiOMYIjOEZwBMcYwTFGcATHGMExRnAExwju0eAkYy/YOMFl/1mMvWLVOEe4/9aTnlv3/hJrs+v9TeR13y9hbV9hU2ytyUi29rp803O4/l9C1WXfb0J1bd8vUeSvsCmqAs+/tQnu4ZtA9g8uI7g3AKfa3qedU23fW1k2We9voux9RzKG2BR9v4RqjN53//63do/gGLvvH79XnDeU4BgjOMYI7psTnypfSwBZl9f9HBXLsspXCkC7Nc0+LjpIWVTb3Sl0+7kE133LLLNTAJS1Nc1eTuSklecrA4DMOrPrZ1Os8twyAGCyNQ+zbt+3ss6rUgIoq9zq56y9qPOqkUDSbU0zezZwhTkptyUAqyr+b+9sdiVHYTCqSMCHXyBZlPwDDKB6/xfsRW7fvotexpqpkc8LuLA5RSBW6N3ld7JclgeAq3NyqUHVscc9mvF9BdfDZxmjtBcA6ldKPhuUQ+80YXXtyyeEqRwAULxKwcYzM8Byqvgc6bLx2AqkNr1K4SicCWMVADJhPsfFmhllATjerTgtolUGABwN1A6XCJhfwu12kNMgqE0ANQ+M7DSTqJ8AcO52+hwk1jQy3/Pq6tUphGUGUsvt+DjhZks4O4Bs0O1SA5OEowFQs9adknELd1/B5VOEW7hqNvLhNIgpDKBut1IAQxR3KcRnEdW8L7qFG06vFDnvkwAyG3t+mnBD0r385AHdHgmqmhnXl2gj++Si/hHuvmTSSzgAuJqXDFYB1Gyw7TNXTUb9ttulEJQs6y3cbD6DoKS/9w1n/zThNBvLUEVfXFwmUuU8WSYrlFMRpxLkmZLRzyu4nn6MORqTMmlipw3WzEYE1doLF5+JNPIggiqUeblUmzlZNmOWwe2EUwjN4y5FK58mHJ2S+6ssmIj4NMvQJbmlq6OIiI8Nmv/Z3USpZFkuD2O89lusn6mLOPUtvd8iE6s4lmK/RQ6cC0ukuYSYTeRMbdLM0nw27KOJlNQP7uIVwlE4EPMLKaEm9jryIeaEV0JirxDEzFxT/XkF1+P/q8yUUk3MyS9C8i3Fdwi3UhAzExLdRYdjiJdjKTyF+7lQ4KP537QT1RjBfzJH0WkSBCFcEIRwQRCEcEEQwgWPQgQ6//Y2hK77YF5LjSyFcMFDlAX8tVFYf79E6jOyFMIFz8D5LXYZr9ku7YtB5auF+1w1Xa0rZo/P8IZwwUNPlKtr6ofuZbuNvqgvW4sAtIkpNhQqHHkK4YJnOBeoH7oZrdSj8W5dcgKQDSOfVqGikaYQLnhsD0f90E3oJ2bTPcyMAMgAWclHrHAhXPAcV0vph3CvVliNAJQCNV4Lo6VIUwgXPIO2PNZUIawDo4N7loMAWEvWctO6jshSCBd4UH/0WFMx3J9vigUuhAv85Uu3aBQ7uBAuCIIQLgj+PX4BBLCZ7QlRqMwAAAAASUVORK5CYII=;imageBorder=default;" vertex="1" parent="1">
          <mxGeometry x="30" y="350" width="241.46" height="90" as="geometry" />
        </mxCell>
        <mxCell id="MZkw5Bfd-R0kXMftx8xv-4" value="" style="shape=image;verticalLabelPosition=bottom;labelBackgroundColor=default;verticalAlign=top;aspect=fixed;imageAspect=0;image=data:image/png,iVBORw0KGgoAAAANSUhEUgAAAN4AAAGeCAYAAAD7SL9vAAAAOXRFWHRTb2Z0d2FyZQBNYXRwbG90bGliIHZlcnNpb24zLjQuMywgaHR0cHM6Ly9tYXRwbG90bGliLm9yZy/MnkTPAAAACXBIWXMAAA9hAAAPYQGoP6dpAAAkTklEQVR4nO3dfWxUZR4v8O/MdOa0pe1gKe20Mu3yJihQ9l6U2qgEpVLqvQ3E/oEvicUQXE0xgV6j20RBdjVVN1F0F8s/LmhixXUjGN0sXO1uS9xQdu1ug+4mDe12Q7nQoux2ph3a03k59w+X0RFmnt/AlGdavp9kEto+nPP0zHx72vk9LzbLsiwQ0TVl190BousRg0ekAYNHpAGDR6QBg0ekAYNHpAGDR6QBg0ekAYNHpEGG7g78UCQSwZkzZ5Cbmwubzaa7O0RJsSwLIyMjKCkpgd2e4L5mTZJf/epXVllZmWUYhrVy5Urr+PHjov83MDBgAeCDjyn9GBgYSPg6n5Q73vvvv4/Gxkbs3bsXFRUV2L17N6qrq9HT04PCwsKE/zc3NxcAcOf//D/IcBhx29n//k9lPyLjE6L+2uypubNa4bCwoaVsYjPif+9RkvOVLxR0CDizKk/ZxsxX99tuqs/lVj91AIDcgXFlG8dIUN3mm2FlG8tUH+fbdon7FLKCODr6m+jrOJ5JCd6rr76KLVu24NFHHwUA7N27F7/73e/w61//Gj/96U8T/t+Lv15mOAxkZGTGbWe3uZT9iNjUL5Tvn/NqWTbpn8yC4Nmc6sNIzueIfw1jmhnqdvZMdb8dgkvpUD91AIAMwavT4VBfA4dd/UPMEv7wtWwRUTvVayrlb65MTEygq6sLVVVV353EbkdVVRWOHTt2SXvTNOH3+2MeRNNdyoP3zTffIBwOo6ioKObzRUVFGBwcvKR9c3Mz3G539OH1elPdJaK0o72c0NTUBJ/PF30MDAzo7hLRpEv533gFBQVwOBwYGhqK+fzQ0BA8Hs8l7Q3DgCF5I4FoGkn5Hc/lcmHFihVoa2uLfi4SiaCtrQ2VlZWpPh3RlDQp72o2Njaivr4et956K1auXIndu3cjEAhE3+WUuO31bhg58d/Z+1953cpj5NpkbxFLRKB+1yssaCPlhPrdM5fgHbaRyJ9E58u2h5RtTgZnKdt4M4aVbTwOWdml0DFD1E7lVGhU2WYk4hAdK9uWuO8jIxH8jyXq40xK8DZu3Iivv/4aO3bswODgIH784x/j8OHDl7zhQnS9mrQhY1u3bsXWrVsn6/BEU5r2dzWJrkcMHpEGDB6RBgwekQYMHpEGDB6RBmk3A/2iPMc4Mh3xi7r/d2SZ8hh2wfQbKVMwdTFsyX6OORVFWEBYsBec7+uJHFGf/jORrWxzZtQt6JO630XZ6oI2ANxgXFC2KXCpjxUIq4ckZgieEwDIy0g8H88cDQL4RHkc3vGINGDwiDRg8Ig0YPCINGDwiDRg8Ig0YPCINGDwiDRg8Ig0SNuRK/fO+AdycuL/XOgJJl6RGgCGw+rRGACQa1evWCxZ1sEhHCkjOdZ4RLCgrcDKGerRHwDQObpA2aYky6dsExIsoZDlkK3wXeBUj0qxC5a/yHcElG0y7alZJmQsrF5CA+Adj0gLBo9IAwaPSAMGj0gDBo9IAwaPSAMGj0gDBo9Ig7QtoL91/k64zPhF5Ihg2YOgcCkGSdFXcizDLl0+YEzZZlSwXIHEWFhWiJdcg5kudb8lSyiMhWVbwn45fqOyzXhY/RKeZagL6A7h7sGq5UQmRoMAugTHIaJrjsEj0oDBI9KAwSPSgMEj0oDBI9KAwSPSgMEj0iBtC+g3Zv4HmZnxu5dpU8/0lcxOBoCgpS4eS/Y7uBCRFYZFeycIi/8q/xybLWoXEBS1ZzhMZRvJtbQL9ykozfq3qJ3KDU51AV16vd2OxDP6xyxNM9Cff/552Gy2mMfixYtTfRqiKW1S7nhLlizBZ5999t1JMtL2xkqkxaQkIiMjAx6PZzIOTTQtTMqbKydPnkRJSQnmzZuHhx9+GKdOnYrb1jRN+P3+mAfRdJfy4FVUVGD//v04fPgwWlpa0N/fj7vuugsjIyOXbd/c3Ay32x19eL3eVHeJKO3YLMtK3baplzE8PIyysjK8+uqr2Lx58yVfN00Tpvndu2V+vx9erxfPH1+DzBy+q3m1UvmupmT3Vcm1lMq2y9bfVLmm72qOhvDUbX+Cz+dDXl5e3HaT/q7HzJkzcdNNN6G3t/eyXzcMA4aRmrlnRFPFpBfQR0dH0dfXh+Li4sk+FdGUkfI73lNPPYXa2lqUlZXhzJkz2LlzJxwOBx588MGkjhOxbAlv/yORTOUxpL/6pWr5bumy65JfNVP16++MDHXRW0pyvlT+Sh4W3BdCEXWb0bD6taKaWX5R0MpN+PXxkOy1lPLgnT59Gg8++CDOnz+P2bNn484770RnZydmz5b9rUF0PUh58A4cOJDqQxJNOxwkTaQBg0ekAYNHpAGDR6QBg0ekAYNHpAGDR6RB2s5Q/eeF2XDZ449wcAr2KcjNGBedywyl5jJIRm0AQBDqUSkRy6Zsc8FSjwBxQDZQfLbr8rNHvq/I6VO2kYw28YWyRX2S7B8REpwvLBgAPS4c3K26nmZY/bwBvOMRacHgEWnA4BFpwOARacDgEWnA4BFpwOARacDgEWmQtgX0edlfIzM7/lIKkqKodImBMcGSDVkO9ZR+6RISkiUicgT7FJiW+un7eiLxUgUX/XtCXdT+u6VeNydDsLLbjAzZ6mGSQQR2W2oWyTPssj0PUoV3PCINGDwiDRg8Ig0YPCINGDwiDRg8Ig0YPCINGDwiDdK2gB60HHAkmBUsme2d65DNQJfOHFeRrr8vOZ9DUIjOtqkL0WWZ50V9ujn7rLLN2Qm3so1kBrrbMSbqk1NQ1JbMZk/Vng8AEEHior5dMNAC4B2PSAsGj0gDBo9IAwaPSAMGj0gDBo9IAwaPSAMGj0iDtC2gDwezYQTjz9SWLO+dSqGIeonvoGBWPAA4BLOmw4LZ1xLFmX5Ru2+sHGWbf0/MULaRXINzNtmseMms/6DgeZEs9y+lel4mxmWz65O+4x09ehS1tbUoKSmBzWbDoUOHYr5uWRZ27NiB4uJiZGVloaqqCidPnkz2NETTWtLBCwQCWL58Ofbs2XPZr7/yyit44403sHfvXhw/fhwzZsxAdXU1xsdlw7eIrgdJ/6pZU1ODmpqay37Nsizs3r0bzz77LNavXw8AeOedd1BUVIRDhw7hgQceuLreEk0TKX1zpb+/H4ODg6iqqop+zu12o6KiAseOHUvlqYimtJS+uTI4OAgAKCoqivl8UVFR9Gs/ZJomTPO7pez8ftmbAURTmfZyQnNzM9xud/Th9Xp1d4lo0qU0eB6PBwAwNDQU8/mhoaHo136oqakJPp8v+hgYGEhll4jSUkqDN3fuXHg8HrS1tUU/5/f7cfz4cVRWVl72/xiGgby8vJgH0XSX9N94o6Oj6O3tjX7c39+P7u5u5Ofno7S0FNu2bcMLL7yAhQsXYu7cuXjuuedQUlKCDRs2pLLfRFNa0sH74osvcPfdd0c/bmxsBADU19dj//79ePrppxEIBPDYY49heHgYd955Jw4fPozMzMykzlNk+JFpxO9etl09QiAo3FBeMu0/IhiRYQj3TjAFeyeEFUsMALJ+S6+BQ7BsxY8yvxEcR71khZRkGYlcu3oZiaBgj4lxS/2cAOrvbwyyPRhslmWlZteHFPH7/XC73Xj++Bpk5jB4iVzr4NkF68Bc98EbDeGp2/4En8+X8M8m7e9qEl2PGDwiDRg8Ig0YPCINGDwiDRg8Ig0YPCIN0nbph68ncmFMxK+tSOpTY2FZbcYpqE9lOdR1w7GwS3S+DMFSBBHB0g92wRISkiUrANm1yncFlG0CgiU5JMs1ALJrMCPDVLYJhNR9klxLADAU+zlMBLh3AlHaYvCINGDwiDRg8Ig0YPCINGDwiDRg8Ig0YPCINEjbAvqFsAuhBAXpDMEk0JlO2Sb3oYj654+kYK/amP4iyWRRpz0185PdLtk1kBS1swWDCAqco8o2FyKygQZhweRjyfOSyoEGysnOwsnQvOMRacDgEWnA4BFpwOARacDgEWnA4BFpwOARacDgEWmQtgX0G5wXYDjjFyNFqz8LC9phW2oKtarZycmQzL7OcahnX/tDsqXzJatbnw/OULaRDFqQPHeAfBVsFcmq46YwClmOxAVyu+Lr0XaiVkSUUgwekQYMHpEGDB6RBgwekQYMHpEGDB6RBgwekQYMHpEGaTtyxRfMhisYfzSFZP8B6X7ckqUBJKMopOeT7O0tOdaoYJ+CDLusT4ZgL3HJkg2SETfSEUUjglE3dsHe7ZLXinQ0jWqPCVN2mOTveEePHkVtbS1KSkpgs9lw6NChmK9v2rQJNpst5rFu3bpkT0M0rSUdvEAggOXLl2PPnj1x26xbtw5nz56NPt57772r6iTRdJP0r5o1NTWoqalJ2MYwDHg8nivuFNF0NylvrrS3t6OwsBCLFi3CE088gfPnz8dta5om/H5/zINoukt58NatW4d33nkHbW1tePnll9HR0YGamhqEw5f/q7O5uRlutzv68Hq9qe4SUdpJ+buaDzzwQPTfy5YtQ3l5OebPn4/29nasWbPmkvZNTU1obGyMfuz3+xk+mvYmvY43b948FBQUoLe397JfNwwDeXl5MQ+i6W7Sg3f69GmcP38excXFk30qoikj6V81R0dHY+5e/f396O7uRn5+PvLz87Fr1y7U1dXB4/Ggr68PTz/9NBYsWIDq6uqkzpPvGoXhil+s/HoiV3mMsKCYK+UQFNklxVypiE1QiBbs+aAq+F4kKTJPRNQvF8k1kAxYAACnoE8SkqL+mHA/hyzF/hHS7y3p4H3xxRe4++67ox9f/Pusvr4eLS0tOHHiBN5++20MDw+jpKQEa9euxc9//nMYhnqUBdH1IungrV69GpYVP9VHjhy5qg4RXQ84SJpIAwaPSAMGj0gDBo9IAwaPSAMGj0iDtJ2BnucYR6YjwV4EgnpnjmNcdK6IYJP7ccHeApnSjedt6lnhQUGx2iE4jmTWOAAYNvW+D5LzSWbqS/YyAGTXSfLcSfokORcAOBQDBMZdsv0zeMcj0oDBI9KAwSPSgMEj0oDBI9KAwSPSgMEj0oDBI9IgbQvogxN5MCbiF639guW9Q5EbROcyBcXqVM2GBmSzwiWzpt1O9QABM6IuHgOyGfaSGf2pnKlvJBpA8V+jIfUAASOFz53qegYDwsEBqegMESWHwSPSgMEj0oDBI9KAwSPSgMEj0oDBI9KAwSPSgMEj0iBtR67YbVbCdeg9Ruo2sJSMpEjVsgcAEBSMJjHs124pBgAYDamX2PeHspRt8jLGlG2k+wtI2uU7A6JjXStmWLj8xyT3g4gug8Ej0oDBI9KAwSPSgMEj0oDBI9KAwSPSgMEj0iBtC+gqF8LqKf/iTe5t6qUB/hPKTslxxARL+UuK45JCPADkZUiWkVAvWZFKkuUvglBfg1BEfX+Rvlak11N5vmQaNzc347bbbkNubi4KCwuxYcMG9PT0xLQZHx9HQ0MDZs2ahZycHNTV1WFoaCglnSWaLpIKXkdHBxoaGtDZ2YlPP/0UwWAQa9euRSDw3bCd7du34+OPP8YHH3yAjo4OnDlzBvfff3/KO040lSX1q+bhw4djPt6/fz8KCwvR1dWFVatWwefz4a233kJrayvuueceAMC+fftw8803o7OzE7fffnvqek40hV3Vmys+nw8AkJ+fDwDo6upCMBhEVVVVtM3ixYtRWlqKY8eOXfYYpmnC7/fHPIimuysOXiQSwbZt23DHHXdg6dKlAIDBwUG4XC7MnDkzpm1RUREGBwcve5zm5ma43e7ow+v1XmmXiKaMKw5eQ0MDvvrqKxw4cOCqOtDU1ASfzxd9DAwMXNXxiKaCKyonbN26FZ988gmOHj2KOXPmRD/v8XgwMTGB4eHhmLve0NAQPB7PZY9lGAYMQz0XjGg6SeqOZ1kWtm7dioMHD+IPf/gD5s6dG/P1FStWwOl0oq2tLfq5np4enDp1CpWVlanpMdE0kNQdr6GhAa2trfjoo4+Qm5sb/bvN7XYjKysLbrcbmzdvRmNjI/Lz85GXl4cnn3wSlZWVSb+jeSFkIBSKX7CV7HeQ5ZCtYx+wUnTHFf4YCwlmoJuC2eUSkiI0AETs6naGXT27WlJkj0DWJwnJfg6S653lkM0cHw4mHkgxYcpec0kFr6WlBQCwevXqmM/v27cPmzZtAgC89tprsNvtqKurg2maqK6uxptvvpnMaYimvaSCZ1nqYTWZmZnYs2cP9uzZc8WdIpruOEiaSAMGj0gDBo9IAwaPSAMGj0gDBo9Ig7SdgZ7vGoXhil+MDVvqnxmSJc4B2ZLqYcHPKOkMdEmxOlXnk/ap2DWsbDMazlS2+X/mTGUbabFaWvxXkVxLh2TKv+BYpotLuBOlLQaPSAMGj0gDBo9IAwaPSAMGj0gDBo9IAwaPSAMGj0iDtB25ErbsCUenSEY1RAR7CwCyPQiyBctIjIZkS0hk2NWjJCQjTiTLX2RmyEZSZNrU398s16iyjS+cJTqfRKZdfQ0ke2ikck8LQ3GdHILlMQDe8Yi0YPCINGDwiDRg8Ig0YPCINGDwiDRg8Ig0YPCINEjbAvpY2IlIOP7SD5Ki90hIvVQBIFt/X7JcQUSwHMW37QT7FDjUm9xL+v3viRmiPg2M36BssyD7nLKNL6QuoPuCsiL7DMGghaDwmqtI9lcAALst8WrqE+OyvRN4xyPSgMEj0oDBI9KAwSPSgMEj0oDBI9KAwSPSgMEj0iBtC+g5GSaMjPgztQ2busB8ozEsOpdkHwanXX0+aQFdUvyXkMysHo/EH4TwfaNh9ex5B9RbcS/MGlK2OWWfJepTpmA2t+R1kMrnTmU8Mgkz0Jubm3HbbbchNzcXhYWF2LBhA3p6emLarF69GjabLebx+OOPJ3MaomkvqeB1dHSgoaEBnZ2d+PTTTxEMBrF27VoEAoGYdlu2bMHZs2ejj1deeSWlnSaa6pL6VfPw4cMxH+/fvx+FhYXo6urCqlWrop/Pzs6Gx+NJTQ+JpqGr+sXW5/MBAPLz82M+/+6776KgoABLly5FU1MTLly4EPcYpmnC7/fHPIimuyt+cyUSiWDbtm244447sHTp0ujnH3roIZSVlaGkpAQnTpzAM888g56eHnz44YeXPU5zczN27dp1pd0gmpKuOHgNDQ346quv8Pnnn8d8/rHHHov+e9myZSguLsaaNWvQ19eH+fPnX3KcpqYmNDY2Rj/2+/3wer1X2i2iKeGKgrd161Z88sknOHr0KObMmZOwbUVFBQCgt7f3ssEzDAOGIVsIlmi6SCp4lmXhySefxMGDB9He3o65c+cq/093dzcAoLi4+Io6SDQdJRW8hoYGtLa24qOPPkJubi4GBwcBAG63G1lZWejr60Nrayvuu+8+zJo1CydOnMD27duxatUqlJeXJ9WxC2EXwglmoI9a6rukZNN5ILVLfEtIZqBLjEXUy5fbBUVvQLYc/HAwW9mmyFC/OTYsnIEeiuQo28x0xn/jLhnS14rquZswZQX0pILX0tIC4Nsi+fft27cPmzZtgsvlwmeffYbdu3cjEAjA6/Wirq4Ozz77bDKnIZr2kv5VMxGv14uOjo6r6hDR9YCDpIk0YPCINGDwiDRg8Ig0YPCINGDwiDRg8Ig0SNulHyKWLeEoAclSBU5b/KUjYto51CNXUjXaREq1Rr/UjAxT1K7M+Y2yjS+kHrlS4BxRthlLMCLp+0ybup1kTwvRUhuylwqcdsXzIlhmAuAdj0gLBo9IAwaPSAMGj0gDBo9IAwaPSAMGj0gDBo9Ig7QtoGc5gjAS1D0NQaEyW7B5PSArsEr2V3AIC/apOpbk+5PvnZCpbCMpfP/HNkPZRlL0Br7dP0NFsmxHNtTXKWhP0X4Wwu+NdzwiDRg8Ig0YPCINGDwiDRg8Ig0YPCINGDwiDRg8Ig3StoAetBywJyhshyLqnxmimceQzS43BYVou7CALtnoPsOemlnx0n0hvg7lKtvMcKgL2pKCfaZdVmT2hdR7LEgGUkgK/6naP8MMyV5zvOMRacDgEWnA4BFpwOARacDgEWnA4BFpwOARacDgEWmQtgV0ByJwJFpXW/AjQ7pUuKQIawiKvhl2WQFdUvyXcAhWlQ8Lf7baoV4y3h9Sz1LPERTZJUvmA0j8/P+XZBCB5PmVFtBV1zMsfA0k9QpoaWlBeXk58vLykJeXh8rKSvz+97+Pfn18fBwNDQ2YNWsWcnJyUFdXh6GhoWROQXRdSCp4c+bMwUsvvYSuri588cUXuOeee7B+/Xr8/e9/BwBs374dH3/8MT744AN0dHTgzJkzuP/++yel40RTWVK/atbW1sZ8/OKLL6KlpQWdnZ2YM2cO3nrrLbS2tuKee+4BAOzbtw8333wzOjs7cfvtt6eu10RT3BX/sREOh3HgwAEEAgFUVlaiq6sLwWAQVVVV0TaLFy9GaWkpjh07Fvc4pmnC7/fHPIimu6SD9+WXXyInJweGYeDxxx/HwYMHccstt2BwcBAulwszZ86MaV9UVITBwcG4x2tubobb7Y4+vF5v0t8E0VSTdPAWLVqE7u5uHD9+HE888QTq6+vxj3/844o70NTUBJ/PF30MDAxc8bGIpoqkywkulwsLFiwAAKxYsQJ/+ctf8Prrr2Pjxo2YmJjA8PBwzF1vaGgIHo8n7vEMw4BhqHd3JZpOrrqgFIlEYJomVqxYAafTiba2tujXenp6cOrUKVRWVl7taYimlaTueE1NTaipqUFpaSlGRkbQ2tqK9vZ2HDlyBG63G5s3b0ZjYyPy8/ORl5eHJ598EpWVlXxHk+gHkgreuXPn8Mgjj+Ds2bNwu90oLy/HkSNHcO+99wIAXnvtNdjtdtTV1cE0TVRXV+PNN9+8oo7ZbRbstvijKQybej186RIDov4IRnZI906wO9THMi31U2PY1CMyLkRcoj65jQvqY4XVfxKI9nywy/a0MAz18ydZkkOyV4V05IpTMQpm3Kl+TgDAZlmW+lVwDfn9frjdbjT+6X/DyIl/USUXKgLBmCqhlAZPcKxrHryM9AteWPD8pV3wRkN4vqINPp8PeXl5cdtxkDSRBgwekQYMHpEGDB6RBgwekQYMHpEGDB6RBmm79EMgbCCYYOmGkaB6GQJpHc8lWBoglUIR9fr6kr5L+i05FwCcsm5QtjEE+zmYgvNJjgPI9qJI1bWU1FYBIMuRuKg/MSYbtME7HpEGDB6RBgwekQYMHpEGDB6RBgwekQYMHpEGDB6RBmlbQHfZQzDs8QufOZk+5TGClqx4LCGaeCtYxz+VJPsiuB1jomMNTsSftHlRohUBLpopuE43CCbdArJJvGZE/RKW9FtKtZ+DmcECOlHaYvCINGDwiDRg8Ig0YPCINGDwiDRg8Ig0YPCINEjbArrTFobTFv/ngqQ4Ll3CfTSkXiHZ6ZDNmpZIWUHXUs/Q/k8oW3SovIxxZZuxBCsCXCR5XkYFK1JLSQY2SK63dLCFql1Q8JwAvOMRacHgEWnA4BFpwOARacDgEWnA4BFpwOARacDgEWnA4BFpkNTIlZaWFrS0tOBf//oXAGDJkiXYsWMHampqAACrV69GR0dHzP/5yU9+gr179ybdsYhlS7iUwkhIvXeCaZd9exOC5QPGBMsQZAj30Y4I9uSWjBIxHOq9EyTHAWT7MDgFexlI9imQ9ilV55OQ7p0QVDx3EyHZvSyp4M2ZMwcvvfQSFi5cCMuy8Pbbb2P9+vX429/+hiVLlgAAtmzZgp/97GfR/5OdLRuyRHQ9SSp4tbW1MR+/+OKLaGlpQWdnZzR42dnZ8Hg8qesh0TR0xX/jhcNhHDhwAIFAAJWVldHPv/vuuygoKMDSpUvR1NSECxdkK0oRXU+Snp3w5ZdforKyEuPj48jJycHBgwdxyy23AAAeeughlJWVoaSkBCdOnMAzzzyDnp4efPjhh3GPZ5omTNOMfuz3+6/g2yCaWpIO3qJFi9Dd3Q2fz4ff/va3qK+vR0dHB2655RY89thj0XbLli1DcXEx1qxZg76+PsyfP/+yx2tubsauXbuu/DsgmoKS/lXT5XJhwYIFWLFiBZqbm7F8+XK8/vrrl21bUVEBAOjt7Y17vKamJvh8vuhjYGAg2S4RTTlXPRE2EonE/Kr4fd3d3QCA4uLiuP/fMAwYRuomRhJNBUkFr6mpCTU1NSgtLcXIyAhaW1vR3t6OI0eOoK+vD62trbjvvvswa9YsnDhxAtu3b8eqVatQXl4+Wf0nmpKSCt65c+fwyCOP4OzZs3C73SgvL8eRI0dw7733YmBgAJ999hl2796NQCAAr9eLuro6PPvss1fUMbvNSjhlP98ZUB5DsiwAICvChgVFbymHoDAsOZ9kaQvpkgbnJ3KUbbIcE8o2kmUWQhHZtbzBqX5HXHKd/ILBFlkO2TIhqufODMqOk1Tw3nrrrbhf83q9l4xaIaLL41hNIg0YPCINGDwiDRg8Ig0YPCINGDwiDRg8Ig3Sdu8EM5IBCGaGJzJmyWY6Z9hl692ninmV39dFkuK49FySQQSSY0kK0dK9I8Yj6udPMps9ZXtVQN0nU/hS4h2PSAMGj0gDBo9IAwaPSAMGj0gDBo9IAwaPSAMGj0iDtC2gj4ddiCQojqqW0gZkS4ADwFhEMgNd3cYhLNQGI+rCt13Q95DgOJJl3qXGwupl7EOCor7kWgKy5y9VrwPJ9waoBxpIl3DnHY9IAwaPSAMGj0gDBo9IAwaPSAMGj0gDBo9IAwaPSAMGj0iDtB25kp1hwsiIP+JAsi+CZG8BQLb+vmS/g2stlfs5SJZ1cNrV1/xaX8trfT47Eo9OMl2y1xzveEQaMHhEGjB4RBoweEQaMHhEGjB4RBoweEQapF0dz7K+rZNMBBLXQyKS/c2FdbyIoBYkmRF+rUn6LWVG1LPnI6zjqet4/33dXnwdx2OzVC2usdOnT8Pr9eruBtFVGRgYwJw5c+J+Pe2CF4lEcObMGeTm5sJm+3Z9C7/fD6/Xi4GBAeTl5WnuoRz7fe3p7rtlWRgZGUFJSQns9vh347T7VdNut8f9SZGXlzflXggA+62Dzr673W5lG765QqQBg0ekwZQInmEY2LlzJwzD0N2VpLDf195U6XvavblCdD2YEnc8oumGwSPSgMEj0oDBI9Ig7YO3Z88e/OhHP0JmZiYqKirw5z//WXeXlJ5//nnYbLaYx+LFi3V36xJHjx5FbW0tSkpKYLPZcOjQoZivW5aFHTt2oLi4GFlZWaiqqsLJkyf1dPZ7VP3etGnTJdd/3bp1ejobR1oH7/3330djYyN27tyJv/71r1i+fDmqq6tx7tw53V1TWrJkCc6ePRt9fP7557q7dIlAIIDly5djz549l/36K6+8gjfeeAN79+7F8ePHMWPGDFRXV2N8fPwa9zSWqt8AsG7dupjr/957713DHgpYaWzlypVWQ0ND9ONwOGyVlJRYzc3NGnultnPnTmv58uW6u5EUANbBgwejH0ciEcvj8Vi/+MUvop8bHh62DMOw3nvvPQ09vLwf9tuyLKu+vt5av369lv5Ipe0db2JiAl1dXaiqqop+zm63o6qqCseOHdPYM5mTJ0+ipKQE8+bNw8MPP4xTp07p7lJS+vv7MTg4GHP93W43KioqpsT1b29vR2FhIRYtWoQnnngC58+f192lGGkbvG+++QbhcBhFRUUxny8qKsLg4KCmXslUVFRg//79OHz4MFpaWtDf34+77roLIyMjursmdvEaT8Xrv27dOrzzzjtoa2vDyy+/jI6ODtTU1CAcFszhvEbSbnbCdFBTUxP9d3l5OSoqKlBWVobf/OY32Lx5s8aeXR8eeOCB6L+XLVuG8vJyzJ8/H+3t7VizZo3Gnn0nbe94BQUFcDgcGBoaivn80NAQPB6Ppl5dmZkzZ+Kmm25Cb2+v7q6IXbzG0+H6z5s3DwUFBWl1/dM2eC6XCytWrEBbW1v0c5FIBG1tbaisrNTYs+SNjo6ir68PxcXFursiNnfuXHg8npjr7/f7cfz48Sl3/U+fPo3z58+n1fVP6181GxsbUV9fj1tvvRUrV67E7t27EQgE8Oijj+ruWkJPPfUUamtrUVZWhjNnzmDnzp1wOBx48MEHdXctxujoaMxdoL+/H93d3cjPz0dpaSm2bduGF154AQsXLsTcuXPx3HPPoaSkBBs2bNDXaSTud35+Pnbt2oW6ujp4PB709fXh6aefxoIFC1BdXa2x1z+g+21VlV/+8pdWaWmp5XK5rJUrV1qdnZ26u6S0ceNGq7i42HK5XNaNN95obdy40ert7dXdrUv88Y9/tABc8qivr7cs69uSwnPPPWcVFRVZhmFYa9assXp6evR22krc7wsXLlhr1661Zs+ebTmdTqusrMzasmWLNTg4qLvbMTgtiEiDtP0bj2g6Y/CINGDwiDRg8Ig0YPCINGDwiDRg8Ig0YPCINGDwiDRg8Ig0YPCINGDwiDT4/7DOtjh8xmbyAAAAAElFTkSuQmCC;imageBorder=default;" vertex="1" parent="1">
          <mxGeometry x="378" y="329" width="70.78" height="132" as="geometry" />
        </mxCell>
        <mxCell id="MZkw5Bfd-R0kXMftx8xv-8" style="edgeStyle=orthogonalEdgeStyle;rounded=0;orthogonalLoop=1;jettySize=auto;html=1;strokeWidth=4;" edge="1" parent="1">
          <mxGeometry relative="1" as="geometry">
            <mxPoint x="680" y="395" as="sourcePoint" />
            <mxPoint x="660" y="255" as="targetPoint" />
            <Array as="points">
              <mxPoint x="730" y="395" />
              <mxPoint x="730" y="255" />
            </Array>
          </mxGeometry>
        </mxCell>
        <mxCell id="MZkw5Bfd-R0kXMftx8xv-5" value="" style="shape=image;verticalLabelPosition=bottom;labelBackgroundColor=default;verticalAlign=top;aspect=fixed;imageAspect=0;image=data:image/png,iVBORw0KGgoAAAANSUhEUgAAAN4AAAGeCAYAAAD7SL9vAAAAOXRFWHRTb2Z0d2FyZQBNYXRwbG90bGliIHZlcnNpb24zLjQuMywgaHR0cHM6Ly9tYXRwbG90bGliLm9yZy/MnkTPAAAACXBIWXMAAA9hAAAPYQGoP6dpAAAkTklEQVR4nO3dfWxUZR4v8O/MdOa0pe1gKe20Mu3yJihQ9l6U2qgEpVLqvQ3E/oEvicUQXE0xgV6j20RBdjVVN1F0F8s/LmhixXUjGN0sXO1uS9xQdu1ug+4mDe12Q7nQoux2ph3a03k59w+X0RFmnt/AlGdavp9kEto+nPP0zHx72vk9LzbLsiwQ0TVl190BousRg0ekAYNHpAGDR6QBg0ekAYNHpAGDR6QBg0ekAYNHpEGG7g78UCQSwZkzZ5Cbmwubzaa7O0RJsSwLIyMjKCkpgd2e4L5mTZJf/epXVllZmWUYhrVy5Urr+PHjov83MDBgAeCDjyn9GBgYSPg6n5Q73vvvv4/Gxkbs3bsXFRUV2L17N6qrq9HT04PCwsKE/zc3NxcAcOf//D/IcBhx29n//k9lPyLjE6L+2uypubNa4bCwoaVsYjPif+9RkvOVLxR0CDizKk/ZxsxX99tuqs/lVj91AIDcgXFlG8dIUN3mm2FlG8tUH+fbdon7FLKCODr6m+jrOJ5JCd6rr76KLVu24NFHHwUA7N27F7/73e/w61//Gj/96U8T/t+Lv15mOAxkZGTGbWe3uZT9iNjUL5Tvn/NqWTbpn8yC4Nmc6sNIzueIfw1jmhnqdvZMdb8dgkvpUD91AIAMwavT4VBfA4dd/UPMEv7wtWwRUTvVayrlb65MTEygq6sLVVVV353EbkdVVRWOHTt2SXvTNOH3+2MeRNNdyoP3zTffIBwOo6ioKObzRUVFGBwcvKR9c3Mz3G539OH1elPdJaK0o72c0NTUBJ/PF30MDAzo7hLRpEv533gFBQVwOBwYGhqK+fzQ0BA8Hs8l7Q3DgCF5I4FoGkn5Hc/lcmHFihVoa2uLfi4SiaCtrQ2VlZWpPh3RlDQp72o2Njaivr4et956K1auXIndu3cjEAhE3+WUuO31bhg58d/Z+1953cpj5NpkbxFLRKB+1yssaCPlhPrdM5fgHbaRyJ9E58u2h5RtTgZnKdt4M4aVbTwOWdml0DFD1E7lVGhU2WYk4hAdK9uWuO8jIxH8jyXq40xK8DZu3Iivv/4aO3bswODgIH784x/j8OHDl7zhQnS9mrQhY1u3bsXWrVsn6/BEU5r2dzWJrkcMHpEGDB6RBgwekQYMHpEGDB6RBmk3A/2iPMc4Mh3xi7r/d2SZ8hh2wfQbKVMwdTFsyX6OORVFWEBYsBec7+uJHFGf/jORrWxzZtQt6JO630XZ6oI2ANxgXFC2KXCpjxUIq4ckZgieEwDIy0g8H88cDQL4RHkc3vGINGDwiDRg8Ig0YPCINGDwiDRg8Ig0YPCINGDwiDRg8Ig0SNuRK/fO+AdycuL/XOgJJl6RGgCGw+rRGACQa1evWCxZ1sEhHCkjOdZ4RLCgrcDKGerRHwDQObpA2aYky6dsExIsoZDlkK3wXeBUj0qxC5a/yHcElG0y7alZJmQsrF5CA+Adj0gLBo9IAwaPSAMGj0gDBo9IAwaPSAMGj0gDBo9Ig7QtoL91/k64zPhF5Ihg2YOgcCkGSdFXcizDLl0+YEzZZlSwXIHEWFhWiJdcg5kudb8lSyiMhWVbwn45fqOyzXhY/RKeZagL6A7h7sGq5UQmRoMAugTHIaJrjsEj0oDBI9KAwSPSgMEj0oDBI9KAwSPSgMEj0iBtC+g3Zv4HmZnxu5dpU8/0lcxOBoCgpS4eS/Y7uBCRFYZFeycIi/8q/xybLWoXEBS1ZzhMZRvJtbQL9ykozfq3qJ3KDU51AV16vd2OxDP6xyxNM9Cff/552Gy2mMfixYtTfRqiKW1S7nhLlizBZ5999t1JMtL2xkqkxaQkIiMjAx6PZzIOTTQtTMqbKydPnkRJSQnmzZuHhx9+GKdOnYrb1jRN+P3+mAfRdJfy4FVUVGD//v04fPgwWlpa0N/fj7vuugsjIyOXbd/c3Ay32x19eL3eVHeJKO3YLMtK3baplzE8PIyysjK8+uqr2Lx58yVfN00Tpvndu2V+vx9erxfPH1+DzBy+q3m1UvmupmT3Vcm1lMq2y9bfVLmm72qOhvDUbX+Cz+dDXl5e3HaT/q7HzJkzcdNNN6G3t/eyXzcMA4aRmrlnRFPFpBfQR0dH0dfXh+Li4sk+FdGUkfI73lNPPYXa2lqUlZXhzJkz2LlzJxwOBx588MGkjhOxbAlv/yORTOUxpL/6pWr5bumy65JfNVP16++MDHXRW0pyvlT+Sh4W3BdCEXWb0bD6taKaWX5R0MpN+PXxkOy1lPLgnT59Gg8++CDOnz+P2bNn484770RnZydmz5b9rUF0PUh58A4cOJDqQxJNOxwkTaQBg0ekAYNHpAGDR6QBg0ekAYNHpAGDR6RB2s5Q/eeF2XDZ449wcAr2KcjNGBedywyl5jJIRm0AQBDqUSkRy6Zsc8FSjwBxQDZQfLbr8rNHvq/I6VO2kYw28YWyRX2S7B8REpwvLBgAPS4c3K26nmZY/bwBvOMRacHgEWnA4BFpwOARacDgEWnA4BFpwOARacDgEWmQtgX0edlfIzM7/lIKkqKodImBMcGSDVkO9ZR+6RISkiUicgT7FJiW+un7eiLxUgUX/XtCXdT+u6VeNydDsLLbjAzZ6mGSQQR2W2oWyTPssj0PUoV3PCINGDwiDRg8Ig0YPCINGDwiDRg8Ig0YPCINGDwiDdK2gB60HHAkmBUsme2d65DNQJfOHFeRrr8vOZ9DUIjOtqkL0WWZ50V9ujn7rLLN2Qm3so1kBrrbMSbqk1NQ1JbMZk/Vng8AEEHior5dMNAC4B2PSAsGj0gDBo9IAwaPSAMGj0gDBo9IAwaPSAMGj0iDtC2gDwezYQTjz9SWLO+dSqGIeonvoGBWPAA4BLOmw4LZ1xLFmX5Ru2+sHGWbf0/MULaRXINzNtmseMms/6DgeZEs9y+lel4mxmWz65O+4x09ehS1tbUoKSmBzWbDoUOHYr5uWRZ27NiB4uJiZGVloaqqCidPnkz2NETTWtLBCwQCWL58Ofbs2XPZr7/yyit44403sHfvXhw/fhwzZsxAdXU1xsdlw7eIrgdJ/6pZU1ODmpqay37Nsizs3r0bzz77LNavXw8AeOedd1BUVIRDhw7hgQceuLreEk0TKX1zpb+/H4ODg6iqqop+zu12o6KiAseOHUvlqYimtJS+uTI4OAgAKCoqivl8UVFR9Gs/ZJomTPO7pez8ftmbAURTmfZyQnNzM9xud/Th9Xp1d4lo0qU0eB6PBwAwNDQU8/mhoaHo136oqakJPp8v+hgYGEhll4jSUkqDN3fuXHg8HrS1tUU/5/f7cfz4cVRWVl72/xiGgby8vJgH0XSX9N94o6Oj6O3tjX7c39+P7u5u5Ofno7S0FNu2bcMLL7yAhQsXYu7cuXjuuedQUlKCDRs2pLLfRFNa0sH74osvcPfdd0c/bmxsBADU19dj//79ePrppxEIBPDYY49heHgYd955Jw4fPozMzMykzlNk+JFpxO9etl09QiAo3FBeMu0/IhiRYQj3TjAFeyeEFUsMALJ+S6+BQ7BsxY8yvxEcR71khZRkGYlcu3oZiaBgj4lxS/2cAOrvbwyyPRhslmWlZteHFPH7/XC73Xj++Bpk5jB4iVzr4NkF68Bc98EbDeGp2/4En8+X8M8m7e9qEl2PGDwiDRg8Ig0YPCINGDwiDRg8Ig0YPCIN0nbph68ncmFMxK+tSOpTY2FZbcYpqE9lOdR1w7GwS3S+DMFSBBHB0g92wRISkiUrANm1yncFlG0CgiU5JMs1ALJrMCPDVLYJhNR9klxLADAU+zlMBLh3AlHaYvCINGDwiDRg8Ig0YPCINGDwiDRg8Ig0YPCINEjbAvqFsAuhBAXpDMEk0JlO2Sb3oYj654+kYK/amP4iyWRRpz0185PdLtk1kBS1swWDCAqco8o2FyKygQZhweRjyfOSyoEGysnOwsnQvOMRacDgEWnA4BFpwOARacDgEWnA4BFpwOARacDgEWmQtgX0G5wXYDjjFyNFqz8LC9phW2oKtarZycmQzL7OcahnX/tDsqXzJatbnw/OULaRDFqQPHeAfBVsFcmq46YwClmOxAVyu+Lr0XaiVkSUUgwekQYMHpEGDB6RBgwekQYMHpEGDB6RBgwekQYMHpEGaTtyxRfMhisYfzSFZP8B6X7ckqUBJKMopOeT7O0tOdaoYJ+CDLusT4ZgL3HJkg2SETfSEUUjglE3dsHe7ZLXinQ0jWqPCVN2mOTveEePHkVtbS1KSkpgs9lw6NChmK9v2rQJNpst5rFu3bpkT0M0rSUdvEAggOXLl2PPnj1x26xbtw5nz56NPt57772r6iTRdJP0r5o1NTWoqalJ2MYwDHg8nivuFNF0NylvrrS3t6OwsBCLFi3CE088gfPnz8dta5om/H5/zINoukt58NatW4d33nkHbW1tePnll9HR0YGamhqEw5f/q7O5uRlutzv68Hq9qe4SUdpJ+buaDzzwQPTfy5YtQ3l5OebPn4/29nasWbPmkvZNTU1obGyMfuz3+xk+mvYmvY43b948FBQUoLe397JfNwwDeXl5MQ+i6W7Sg3f69GmcP38excXFk30qoikj6V81R0dHY+5e/f396O7uRn5+PvLz87Fr1y7U1dXB4/Ggr68PTz/9NBYsWIDq6uqkzpPvGoXhil+s/HoiV3mMsKCYK+UQFNklxVypiE1QiBbs+aAq+F4kKTJPRNQvF8k1kAxYAACnoE8SkqL+mHA/hyzF/hHS7y3p4H3xxRe4++67ox9f/Pusvr4eLS0tOHHiBN5++20MDw+jpKQEa9euxc9//nMYhnqUBdH1IungrV69GpYVP9VHjhy5qg4RXQ84SJpIAwaPSAMGj0gDBo9IAwaPSAMGj0iDtJ2BnucYR6YjwV4EgnpnjmNcdK6IYJP7ccHeApnSjedt6lnhQUGx2iE4jmTWOAAYNvW+D5LzSWbqS/YyAGTXSfLcSfokORcAOBQDBMZdsv0zeMcj0oDBI9KAwSPSgMEj0oDBI9KAwSPSgMEj0oDBI9IgbQvogxN5MCbiF639guW9Q5EbROcyBcXqVM2GBmSzwiWzpt1O9QABM6IuHgOyGfaSGf2pnKlvJBpA8V+jIfUAASOFz53qegYDwsEBqegMESWHwSPSgMEj0oDBI9KAwSPSgMEj0oDBI9KAwSPSgMEj0iBtR67YbVbCdeg9Ruo2sJSMpEjVsgcAEBSMJjHs124pBgAYDamX2PeHspRt8jLGlG2k+wtI2uU7A6JjXStmWLj8xyT3g4gug8Ej0oDBI9KAwSPSgMEj0oDBI9KAwSPSgMEj0iBtC+gqF8LqKf/iTe5t6qUB/hPKTslxxARL+UuK45JCPADkZUiWkVAvWZFKkuUvglBfg1BEfX+Rvlak11N5vmQaNzc347bbbkNubi4KCwuxYcMG9PT0xLQZHx9HQ0MDZs2ahZycHNTV1WFoaCglnSWaLpIKXkdHBxoaGtDZ2YlPP/0UwWAQa9euRSDw3bCd7du34+OPP8YHH3yAjo4OnDlzBvfff3/KO040lSX1q+bhw4djPt6/fz8KCwvR1dWFVatWwefz4a233kJrayvuueceAMC+fftw8803o7OzE7fffnvqek40hV3Vmys+nw8AkJ+fDwDo6upCMBhEVVVVtM3ixYtRWlqKY8eOXfYYpmnC7/fHPIimuysOXiQSwbZt23DHHXdg6dKlAIDBwUG4XC7MnDkzpm1RUREGBwcve5zm5ma43e7ow+v1XmmXiKaMKw5eQ0MDvvrqKxw4cOCqOtDU1ASfzxd9DAwMXNXxiKaCKyonbN26FZ988gmOHj2KOXPmRD/v8XgwMTGB4eHhmLve0NAQPB7PZY9lGAYMQz0XjGg6SeqOZ1kWtm7dioMHD+IPf/gD5s6dG/P1FStWwOl0oq2tLfq5np4enDp1CpWVlanpMdE0kNQdr6GhAa2trfjoo4+Qm5sb/bvN7XYjKysLbrcbmzdvRmNjI/Lz85GXl4cnn3wSlZWVSb+jeSFkIBSKX7CV7HeQ5ZCtYx+wUnTHFf4YCwlmoJuC2eUSkiI0AETs6naGXT27WlJkj0DWJwnJfg6S653lkM0cHw4mHkgxYcpec0kFr6WlBQCwevXqmM/v27cPmzZtAgC89tprsNvtqKurg2maqK6uxptvvpnMaYimvaSCZ1nqYTWZmZnYs2cP9uzZc8WdIpruOEiaSAMGj0gDBo9IAwaPSAMGj0gDBo9Ig7SdgZ7vGoXhil+MDVvqnxmSJc4B2ZLqYcHPKOkMdEmxOlXnk/ap2DWsbDMazlS2+X/mTGUbabFaWvxXkVxLh2TKv+BYpotLuBOlLQaPSAMGj0gDBo9IAwaPSAMGj0gDBo9IAwaPSAMGj0iDtB25ErbsCUenSEY1RAR7CwCyPQiyBctIjIZkS0hk2NWjJCQjTiTLX2RmyEZSZNrU398s16iyjS+cJTqfRKZdfQ0ke2ikck8LQ3GdHILlMQDe8Yi0YPCINGDwiDRg8Ig0YPCINGDwiDRg8Ig0YPCINEjbAvpY2IlIOP7SD5Ki90hIvVQBIFt/X7JcQUSwHMW37QT7FDjUm9xL+v3viRmiPg2M36BssyD7nLKNL6QuoPuCsiL7DMGghaDwmqtI9lcAALst8WrqE+OyvRN4xyPSgMEj0oDBI9KAwSPSgMEj0oDBI9KAwSPSgMEj0iBtC+g5GSaMjPgztQ2busB8ozEsOpdkHwanXX0+aQFdUvyXkMysHo/EH4TwfaNh9ex5B9RbcS/MGlK2OWWfJepTpmA2t+R1kMrnTmU8Mgkz0Jubm3HbbbchNzcXhYWF2LBhA3p6emLarF69GjabLebx+OOPJ3MaomkvqeB1dHSgoaEBnZ2d+PTTTxEMBrF27VoEAoGYdlu2bMHZs2ejj1deeSWlnSaa6pL6VfPw4cMxH+/fvx+FhYXo6urCqlWrop/Pzs6Gx+NJTQ+JpqGr+sXW5/MBAPLz82M+/+6776KgoABLly5FU1MTLly4EPcYpmnC7/fHPIimuyt+cyUSiWDbtm244447sHTp0ujnH3roIZSVlaGkpAQnTpzAM888g56eHnz44YeXPU5zczN27dp1pd0gmpKuOHgNDQ346quv8Pnnn8d8/rHHHov+e9myZSguLsaaNWvQ19eH+fPnX3KcpqYmNDY2Rj/2+/3wer1X2i2iKeGKgrd161Z88sknOHr0KObMmZOwbUVFBQCgt7f3ssEzDAOGIVsIlmi6SCp4lmXhySefxMGDB9He3o65c+cq/093dzcAoLi4+Io6SDQdJRW8hoYGtLa24qOPPkJubi4GBwcBAG63G1lZWejr60Nrayvuu+8+zJo1CydOnMD27duxatUqlJeXJ9WxC2EXwglmoI9a6rukZNN5ILVLfEtIZqBLjEXUy5fbBUVvQLYc/HAwW9mmyFC/OTYsnIEeiuQo28x0xn/jLhnS14rquZswZQX0pILX0tIC4Nsi+fft27cPmzZtgsvlwmeffYbdu3cjEAjA6/Wirq4Ozz77bDKnIZr2kv5VMxGv14uOjo6r6hDR9YCDpIk0YPCINGDwiDRg8Ig0YPCINGDwiDRg8Ig0SNulHyKWLeEoAclSBU5b/KUjYto51CNXUjXaREq1Rr/UjAxT1K7M+Y2yjS+kHrlS4BxRthlLMCLp+0ybup1kTwvRUhuylwqcdsXzIlhmAuAdj0gLBo9IAwaPSAMGj0gDBo9IAwaPSAMGj0gDBo9Ig7QtoGc5gjAS1D0NQaEyW7B5PSArsEr2V3AIC/apOpbk+5PvnZCpbCMpfP/HNkPZRlL0Br7dP0NFsmxHNtTXKWhP0X4Wwu+NdzwiDRg8Ig0YPCINGDwiDRg8Ig0YPCINGDwiDRg8Ig3StoAetBywJyhshyLqnxmimceQzS43BYVou7CALtnoPsOemlnx0n0hvg7lKtvMcKgL2pKCfaZdVmT2hdR7LEgGUkgK/6naP8MMyV5zvOMRacDgEWnA4BFpwOARacDgEWnA4BFpwOARacDgEWmQtgV0ByJwJFpXW/AjQ7pUuKQIawiKvhl2WQFdUvyXcAhWlQ8Lf7baoV4y3h9Sz1LPERTZJUvmA0j8/P+XZBCB5PmVFtBV1zMsfA0k9QpoaWlBeXk58vLykJeXh8rKSvz+97+Pfn18fBwNDQ2YNWsWcnJyUFdXh6GhoWROQXRdSCp4c+bMwUsvvYSuri588cUXuOeee7B+/Xr8/e9/BwBs374dH3/8MT744AN0dHTgzJkzuP/++yel40RTWVK/atbW1sZ8/OKLL6KlpQWdnZ2YM2cO3nrrLbS2tuKee+4BAOzbtw8333wzOjs7cfvtt6eu10RT3BX/sREOh3HgwAEEAgFUVlaiq6sLwWAQVVVV0TaLFy9GaWkpjh07Fvc4pmnC7/fHPIimu6SD9+WXXyInJweGYeDxxx/HwYMHccstt2BwcBAulwszZ86MaV9UVITBwcG4x2tubobb7Y4+vF5v0t8E0VSTdPAWLVqE7u5uHD9+HE888QTq6+vxj3/844o70NTUBJ/PF30MDAxc8bGIpoqkywkulwsLFiwAAKxYsQJ/+ctf8Prrr2Pjxo2YmJjA8PBwzF1vaGgIHo8n7vEMw4BhqHd3JZpOrrqgFIlEYJomVqxYAafTiba2tujXenp6cOrUKVRWVl7taYimlaTueE1NTaipqUFpaSlGRkbQ2tqK9vZ2HDlyBG63G5s3b0ZjYyPy8/ORl5eHJ598EpWVlXxHk+gHkgreuXPn8Mgjj+Ds2bNwu90oLy/HkSNHcO+99wIAXnvtNdjtdtTV1cE0TVRXV+PNN9+8oo7ZbRbstvijKQybej186RIDov4IRnZI906wO9THMi31U2PY1CMyLkRcoj65jQvqY4XVfxKI9nywy/a0MAz18ydZkkOyV4V05IpTMQpm3Kl+TgDAZlmW+lVwDfn9frjdbjT+6X/DyIl/USUXKgLBmCqhlAZPcKxrHryM9AteWPD8pV3wRkN4vqINPp8PeXl5cdtxkDSRBgwekQYMHpEGDB6RBgwekQYMHpEGDB6RBmm79EMgbCCYYOmGkaB6GQJpHc8lWBoglUIR9fr6kr5L+i05FwCcsm5QtjEE+zmYgvNJjgPI9qJI1bWU1FYBIMuRuKg/MSYbtME7HpEGDB6RBgwekQYMHpEGDB6RBgwekQYMHpEGDB6RBmlbQHfZQzDs8QufOZk+5TGClqx4LCGaeCtYxz+VJPsiuB1jomMNTsSftHlRohUBLpopuE43CCbdArJJvGZE/RKW9FtKtZ+DmcECOlHaYvCINGDwiDRg8Ig0YPCINGDwiDRg8Ig0YPCINEjbArrTFobTFv/ngqQ4Ll3CfTSkXiHZ6ZDNmpZIWUHXUs/Q/k8oW3SovIxxZZuxBCsCXCR5XkYFK1JLSQY2SK63dLCFql1Q8JwAvOMRacHgEWnA4BFpwOARacDgEWnA4BFpwOARacDgEWnA4BFpkNTIlZaWFrS0tOBf//oXAGDJkiXYsWMHampqAACrV69GR0dHzP/5yU9+gr179ybdsYhlS7iUwkhIvXeCaZd9exOC5QPGBMsQZAj30Y4I9uSWjBIxHOq9EyTHAWT7MDgFexlI9imQ9ilV55OQ7p0QVDx3EyHZvSyp4M2ZMwcvvfQSFi5cCMuy8Pbbb2P9+vX429/+hiVLlgAAtmzZgp/97GfR/5OdLRuyRHQ9SSp4tbW1MR+/+OKLaGlpQWdnZzR42dnZ8Hg8qesh0TR0xX/jhcNhHDhwAIFAAJWVldHPv/vuuygoKMDSpUvR1NSECxdkK0oRXU+Snp3w5ZdforKyEuPj48jJycHBgwdxyy23AAAeeughlJWVoaSkBCdOnMAzzzyDnp4efPjhh3GPZ5omTNOMfuz3+6/g2yCaWpIO3qJFi9Dd3Q2fz4ff/va3qK+vR0dHB2655RY89thj0XbLli1DcXEx1qxZg76+PsyfP/+yx2tubsauXbuu/DsgmoKS/lXT5XJhwYIFWLFiBZqbm7F8+XK8/vrrl21bUVEBAOjt7Y17vKamJvh8vuhjYGAg2S4RTTlXPRE2EonE/Kr4fd3d3QCA4uLiuP/fMAwYRuomRhJNBUkFr6mpCTU1NSgtLcXIyAhaW1vR3t6OI0eOoK+vD62trbjvvvswa9YsnDhxAtu3b8eqVatQXl4+Wf0nmpKSCt65c+fwyCOP4OzZs3C73SgvL8eRI0dw7733YmBgAJ999hl2796NQCAAr9eLuro6PPvss1fUMbvNSjhlP98ZUB5DsiwAICvChgVFbymHoDAsOZ9kaQvpkgbnJ3KUbbIcE8o2kmUWQhHZtbzBqX5HXHKd/ILBFlkO2TIhqufODMqOk1Tw3nrrrbhf83q9l4xaIaLL41hNIg0YPCINGDwiDRg8Ig0YPCINGDwiDRg8Ig3Sdu8EM5IBCGaGJzJmyWY6Z9hl692ninmV39dFkuK49FySQQSSY0kK0dK9I8Yj6udPMps9ZXtVQN0nU/hS4h2PSAMGj0gDBo9IAwaPSAMGj0gDBo9IAwaPSAMGj0iDtC2gj4ddiCQojqqW0gZkS4ADwFhEMgNd3cYhLNQGI+rCt13Q95DgOJJl3qXGwupl7EOCor7kWgKy5y9VrwPJ9waoBxpIl3DnHY9IAwaPSAMGj0gDBo9IAwaPSAMGj0gDBo9IAwaPSAMGj0iDtB25kp1hwsiIP+JAsi+CZG8BQLb+vmS/g2stlfs5SJZ1cNrV1/xaX8trfT47Eo9OMl2y1xzveEQaMHhEGjB4RBoweEQaMHhEGjB4RBoweEQapF0dz7K+rZNMBBLXQyKS/c2FdbyIoBYkmRF+rUn6LWVG1LPnI6zjqet4/33dXnwdx2OzVC2usdOnT8Pr9eruBtFVGRgYwJw5c+J+Pe2CF4lEcObMGeTm5sJm+3Z9C7/fD6/Xi4GBAeTl5WnuoRz7fe3p7rtlWRgZGUFJSQns9vh347T7VdNut8f9SZGXlzflXggA+62Dzr673W5lG765QqQBg0ekwZQInmEY2LlzJwzD0N2VpLDf195U6XvavblCdD2YEnc8oumGwSPSgMEj0oDBI9Ig7YO3Z88e/OhHP0JmZiYqKirw5z//WXeXlJ5//nnYbLaYx+LFi3V36xJHjx5FbW0tSkpKYLPZcOjQoZivW5aFHTt2oLi4GFlZWaiqqsLJkyf1dPZ7VP3etGnTJdd/3bp1ejobR1oH7/3330djYyN27tyJv/71r1i+fDmqq6tx7tw53V1TWrJkCc6ePRt9fP7557q7dIlAIIDly5djz549l/36K6+8gjfeeAN79+7F8ePHMWPGDFRXV2N8fPwa9zSWqt8AsG7dupjr/957713DHgpYaWzlypVWQ0ND9ONwOGyVlJRYzc3NGnultnPnTmv58uW6u5EUANbBgwejH0ciEcvj8Vi/+MUvop8bHh62DMOw3nvvPQ09vLwf9tuyLKu+vt5av369lv5Ipe0db2JiAl1dXaiqqop+zm63o6qqCseOHdPYM5mTJ0+ipKQE8+bNw8MPP4xTp07p7lJS+vv7MTg4GHP93W43KioqpsT1b29vR2FhIRYtWoQnnngC58+f192lGGkbvG+++QbhcBhFRUUxny8qKsLg4KCmXslUVFRg//79OHz4MFpaWtDf34+77roLIyMjursmdvEaT8Xrv27dOrzzzjtoa2vDyy+/jI6ODtTU1CAcFszhvEbSbnbCdFBTUxP9d3l5OSoqKlBWVobf/OY32Lx5s8aeXR8eeOCB6L+XLVuG8vJyzJ8/H+3t7VizZo3Gnn0nbe94BQUFcDgcGBoaivn80NAQPB6Ppl5dmZkzZ+Kmm25Cb2+v7q6IXbzG0+H6z5s3DwUFBWl1/dM2eC6XCytWrEBbW1v0c5FIBG1tbaisrNTYs+SNjo6ir68PxcXFursiNnfuXHg8npjr7/f7cfz48Sl3/U+fPo3z58+n1fVP6181GxsbUV9fj1tvvRUrV67E7t27EQgE8Oijj+ruWkJPPfUUamtrUVZWhjNnzmDnzp1wOBx48MEHdXctxujoaMxdoL+/H93d3cjPz0dpaSm2bduGF154AQsXLsTcuXPx3HPPoaSkBBs2bNDXaSTud35+Pnbt2oW6ujp4PB709fXh6aefxoIFC1BdXa2x1z+g+21VlV/+8pdWaWmp5XK5rJUrV1qdnZ26u6S0ceNGq7i42HK5XNaNN95obdy40ert7dXdrUv88Y9/tABc8qivr7cs69uSwnPPPWcVFRVZhmFYa9assXp6evR22krc7wsXLlhr1661Zs+ebTmdTqusrMzasmWLNTg4qLvbMTgtiEiDtP0bj2g6Y/CINGDwiDRg8Ig0YPCINGDwiDRg8Ig0YPCINGDwiDRg8Ig0YPCINGDwiDT4/7DOtjh8xmbyAAAAAElFTkSuQmCC;imageBorder=default;" vertex="1" parent="1">
          <mxGeometry x="600" y="329" width="70.78" height="132" as="geometry" />
        </mxCell>
        <mxCell id="MZkw5Bfd-R0kXMftx8xv-9" style="edgeStyle=orthogonalEdgeStyle;rounded=0;orthogonalLoop=1;jettySize=auto;html=1;strokeWidth=5;" edge="1" parent="1">
          <mxGeometry relative="1" as="geometry">
            <mxPoint x="610" y="255" as="sourcePoint" />
            <mxPoint x="590" y="395" as="targetPoint" />
            <Array as="points">
              <mxPoint x="550" y="255" />
              <mxPoint x="550" y="395" />
            </Array>
          </mxGeometry>
        </mxCell>
        <mxCell id="MZkw5Bfd-R0kXMftx8xv-7" value="&lt;font style=&quot;font-size: 25px;&quot;&gt;+&lt;/font&gt;" style="ellipse;whiteSpace=wrap;html=1;aspect=fixed;" vertex="1" parent="1">
          <mxGeometry x="620.39" y="240" width="30" height="30" as="geometry" />
        </mxCell>
        <mxCell id="MZkw5Bfd-R0kXMftx8xv-10" style="edgeStyle=orthogonalEdgeStyle;rounded=0;orthogonalLoop=1;jettySize=auto;html=1;strokeWidth=4;sourcePerimeterSpacing=0;targetPerimeterSpacing=10;endSize=6;" edge="1" parent="1">
          <mxGeometry relative="1" as="geometry">
            <mxPoint x="460" y="394.67" as="sourcePoint" />
            <mxPoint x="530" y="394.67" as="targetPoint" />
          </mxGeometry>
        </mxCell>
        <mxCell id="MZkw5Bfd-R0kXMftx8xv-13" style="edgeStyle=orthogonalEdgeStyle;rounded=0;orthogonalLoop=1;jettySize=auto;html=1;strokeWidth=4;" edge="1" parent="1">
          <mxGeometry relative="1" as="geometry">
            <mxPoint x="635" y="170" as="sourcePoint" />
            <mxPoint x="635" y="230" as="targetPoint" />
          </mxGeometry>
        </mxCell>
        <mxCell id="MZkw5Bfd-R0kXMftx8xv-11" value="" style="shape=image;verticalLabelPosition=bottom;labelBackgroundColor=default;verticalAlign=top;aspect=fixed;imageAspect=0;image=data:image/png,iVBORw0KGgoAAAANSUhEUgAAAgAAAAIACAMAAADDpiTIAAAAA3NCSVQICAjb4U/gAAAACXBIWXMAAIDZAACA2QHmjdRnAAAAGXRFWHRTb2Z0d2FyZQB3d3cuaW5rc2NhcGUub3Jnm+48GgAAAwBQTFRF////AAAAAAAAAAAAAAAAAAAAAAAAAAAAAAAAAAAAAAAAAAAAAAAAAAAAAAAAAAAAAAAAAAAAAAAAAAAAAAAAAAAAAAAAAAAAAAAAAAAAAAAAAAAAAAAAAAAAAAAAAAAAAAAAAAAAAAAAAAAAAAAAAAAAAAAAAAAAAAAAAAAAAAAAAAAAAAAAAAAAAAAAAAAAAAAAAAAAAAAAAAAAAAAAAAAAAAAAAAAAAAAAAAAAAAAAAAAAAAAAAAAAAAAAAAAAAAAAAAAAAAAAAAAAAAAAAAAAAAAAAAAAAAAAAAAAAAAAAAAAAAAAAAAAAAAAAAAAAAAAAAAAAAAAAAAAAAAAAAAAAAAAAAAAAAAAAAAAAAAAAAAAAAAAAAAAAAAAAAAAAAAAAAAAAAAAAAAAAAAAAAAAAAAAAAAAAAAAAAAAAAAAAAAAAAAAAAAAAAAAAAAAAAAAAAAAAAAAAAAAAAAAAAAAAAAAAAAAAAAAAAAAAAAAAAAAAAAAAAAAAAAAAAAAAAAAAAAAAAAAAAAAAAAAAAAAAAAAAAAAAAAAAAAAAAAAAAAAAAAAAAAAAAAAAAAAAAAAAAAAAAAAAAAAAAAAAAAAAAAAAAAAAAAAAAAAAAAAAAAAAAAAAAAAAAAAAAAAAAAAAAAAAAAAAAAAAAAAAAAAAAAAAAAAAAAAAAAAAAAAAAAAAAAAAAAAAAAAAAAAAAAAAAAAAAAAAAAAAAAAAAAAAAAAAAAAAAAAAAAAAAAAAAAAAAAAAAAAAAAAAAAAAAAAAAAAAAAAAAAAAAAAAAAAAAAAAAAAAAAAAAAAAAAAAAAAAAAAAAAAAAAAAAAAAAAAAAAAAAAAAAAAAAAAAAAAAAAAAAAAAAAAAAAAAAAAAAAAAAAAAAAAAAAAAAAAAAAAAAAAAAAAAAAAAAAAAAAAAAAAAAAAAAAAAAAAAAAAAAAAAAAAAAAAAAAAAAAAAAAAAAAAAAAAAAAAAAAAAAAAAAAAAAAAAAAAAAAAAAAAAAAAAAAAAAAAAAAAAAAACyO34QAAAP90Uk5TAAECAwQFBgcICQoLDA0ODxAREhMUFRYXGBkaGxwdHh8gISIjJCUmJygpKissLS4vMDEyMzQ1Njc4OTo7PD0+P0BBQkNERUZHSElKS0xNTk9QUVJTVFVWV1hZWltcXV5fYGFiY2RlZmdoaWprbG1ub3BxcnN0dXZ3eHl6e3x9fn+AgYKDhIWGh4iJiouMjY6PkJGSk5SVlpeYmZqbnJ2en6ChoqOkpaanqKmqq6ytrq+wsbKztLW2t7i5uru8vb6/wMHCw8TFxsfIycrLzM3Oz9DR0tPU1dbX2Nna29zd3t/g4eLj5OXm5+jp6uvs7e7v8PHy8/T19vf4+fr7/P3+6wjZNQAAKHRJREFUeNrtnXlATtkfxm+pkEh2ISHLYCxZs2UrsgwaMWRJRhKGyr4vY9+JiDBRmjKFSshWllKIsRVabEUl7b1t7/mVMfMz413ufd977j33fb+fv+vec57nee892z2HolSYSgZNO/QZ9tPMhet3uR3y9PLxCwwKvXz95p17fz59nvQmNSMrv6isrCg/KyP1TdLzp3/eu3Pz+uXQoEA/Hy/PQ2671i+c+dOwPh2aGlSiAGGg37r3sJ8cFqzfc+yPy9FxKfmIJfJT4qIv/3Fsz/oFDj8N691aH5QmCT2T3j86rTt0Niq5EHFEYXLU2UPrnH7s3UIP9OcHLeOeox1XuwfcTshHvJKXcCvgwKqZo3o2hRcFJ1TvZL3Q/dLLEkQcxS8vHlgwpmN18AgLGo362q33jkpDxJMW6b3Orm8jDfCMJeebDf9lT9DTQiQwCp8G7f5leDPIgTLNOzPHAzdzkKDJuXnA0Qyaiox/9i3GrAlIECMVQZwQsGZMC3gY0KJGb6eDt3ORCpJ7+6BT7xrgsHSq9ltyJkmMVBpx0pkl/aqC19/QcOzOO8VITSi+s3NsQ/D8nxH7Tk7eSUjtSPJ26gSDRzUs14TlILUlJ2yNpfq2Cgxs3B+WIbWn7KG7jYH69fO6rLhZCub/TenNFV3UqJdYZ6LXBzD9v3zwmlhHDczX7LnmDjz3pb0N7qzpqanK7tefciqDR31LCnMy0969ehn3KDb6dviVC8GB/j5eXj7+gcEXroTfjo59FPfy1bu0zJxCPucaM05Nqa+a7rdYfo/DQZ7ijMQHEcE+B7eu+MXOenD3NoZ6WkwKq6Vn2Kb7YGu7X1ZsPegTHPEgMYPDQQrxveUtVM39Ri7R+FtS7x9cOL7ZecJAU5N6VdivQpV6JqYDJzhvPn7hQSr+9mu0SyMVavQ5huP77X98ctVn56IpQzrW5/DtqVm/45Api3b6XH3yEd9zINxRJRqFNaaG4nilliSEHVps062JDt/102nSzWbxobAELJUMnSrwYaKq4wJEbDeSon03/jywGXGDqJWaDfx5o280241cUcA4wU4daQzxZnFat/R56H5X607E/yJqdLJ23R/6nMVWQq73ECEOEhm4vGBLgdfnt0zuVFlY1a/cafKW86/ZUuCFi9AGi02PFLDSwgt3c+wt4O8w9Hs7uoWz0k4sOGIqoPRPilS+wnePuVoaqkYvyNDS9dhd5X8QkZOE8RQ02qjk2u3iu26TWqnciKhmq0lud5UcTUrbaER8w8/ijFLNnzf+rr1VeMFU1d6u/m+UagqfsSC5QagzM17xuuVHbLU2pNQAQ+utEUp80BY/U4fQimk7vFK4Ur/NMtWi1Agt01m/KfxjeeWgTaL9M5IVrI7nhHqUWlJvgqeCP5nkGaRFQGu6Qss6PwU4taTUmpZOAZ8UWlI6naQnppZ9ogKDnFeXdYdVsRWDyN2XXVVgwDzRnpQIaE1LYDzTFbttiC5Y/390h2yLZTxjmjCNiAjYvmRY7jy/CXXB8m+pO8Evj6GUL215L3XbcGZFzjoxGj6Mkj5OMPpEFjM9w9vyWuBqWxiNbaUfHqoDLssZSxl6OJ3RuOmWavwVdjSTXsw7twHQ5qPXKhzg9o5JP3o0T+VsFsyg17LdDD6PZ4CG2XYG/ergZnw8qlbQnt/KOtANLGVOtwO02wMFKzh/tQ6Ko9vju2oLrT5F24S2V+n2DeMGcVuyI3QX86xvDj4qQ/P1dJcVHeHwd9b2Ma0iFfkN0QQLlUVzqF8RLbkfc9YjtKc1mflwXm1wjx1qz3tIa0LdnpPS6J2ks3DBuyv4xiZdvekstDnJwYZ0nWhMYxfsbwaWsd7r3k+j2xXfCXcxnOTPW2X+CkP9WKj7a6b8OVYnrEXQ95dbgreusC8mvtev61u5BvhjXEbf6Km8uz+zh8F+rOjYP5PnwVNs3xWbyBudjB4D473Y0Rgj70v7JBM8d+74Xs4SFRtwhxts5CzAet8Rx117y167lrWgMjjDFZUXyJ4m+NSb/XsOlTn6U+JWB2zhkjpuMjckyB/K9g3Hy1z5EdQGLOGaNkEy14mMZ/duM2Vt7fZgENjBB4MeyNpybiabt5oq6xNue5jx4QlNe1mfnk9lsf0nYzoqzBCM4A/DMBmTsay1BI2lf+8tmg89f35HBeZLH5tPM2bnHtUfSZ/ybQ8W8E176VPFj1g5xFBT6tpP8Xbo+pMwKLBd6rqxYDaaZzukbuYwEMQng4FSN53YofzFp0u7dqABKE8KBoHSXJqu7KVNpQ0A7YfOH0kdwv3SBoSU3FxMQ9p+X6tAdLJYJW1vMeW6afZcDDMBbCBtsFaplaIGkkcARGNAb/IYI3lEIE2ZtprkN0uWOahNIuaS54j3K37FzhKfKh86gNZk0kHiWVxlnRVuAd6WOPXfD5QmlX4SFwncVrQdKHkOcB7oTC7zWJ0XlDjI7A0qk4y3xCkbxa5lKvFasLkX0ehK/NUqNhrkJumrH/jam3CaS/p6yE2RK1WWcKUyK1CYdKwkdN0yFZm2HSchST6gL/n4SDBunALXuSBhAcD3IC/5fC9hecAF5pdpLOFJcgbUFQJnJLy7GzO+yhoJD5LuIK4Q6C7BujVML1JFwjRQGGgrDCQsFU5jepryeAkp6g/SCoP+Esxj+qXQrxK+/gVlhYKEr4d/ZXgJCVuBBIGwQkHCZ4P+yncCt4KwQmGr8h1BCQGwA2GFgh2WAPQAYYVCDywB0AdhhYI+jgDkgK7CIQfHEwC2/hUMtbG8AvqAsEKhD5YAOICwQsEBSwB2gbBCYReWAFwAYYXCBSwBeAe7wQgEjXdYAoBGgbTCYBTCE4BokFYYRGMKALIAbYWABcIVgOsgrhC4ji0AqDeoSz69Eb4AnAd5yec8xgDAmgDysUM4A1BoCgqTjWkh1gCgZJgTJJrayQhvAFBYJVCZXCpJ3T2ctQCgLSAzuWxB+AOAxoLOpDIWcRGAPBgQJBSLPE4CgIongNYkMkHWwV5sBgCJYacwApknRlwFAKGNoDdpbJTtGMsBQJ7QGySr/+eJuA0AOlcVVCeHqucQ1wFAUbBjHDE0j0LcBwDl2oPyZGCfi/gIAEKBcGI0AdQJpOMVlgCg1GGgP98MS0X8BQChA7B3MK/oHqBpFK4AoLiu4AJ/dI1DfAcAlWytAUbwQ42tJYj/ACCUNgtGhfgY+5mVxsAknAFA6PFQ8INrhj5mZBHeACAU2g4s4ZJ2oQwNUj4AxbLfN6XudcEWrqjrXiq7XVaMIQDvB2XKzlj2IjhNnhMqL8qW7UTmoPc4AkC1ipfzmHnjrAf24EbP+Y0cG+JbUXgCQNUMk/em+bgORoexUmfdR3kehNWkcAWA0nKX29jI32cMNuHCeF++XAPctSh8AaCo2SL5I0Mn4WQZLHx/Uv64j2j25z/FFwCqA53uZ0hfsItt+obQGZD5cq4zxgBQVdzodDtvjdUBz9hDZ+wtOqq7/X0uCM4AUNTwD3QKk74L3gRsPft3pdNR/MPwf/4DbwCo+jSHoaIdYYNppdGfGU1zMLY+xVUAKI15InqFKjjRHzaXUwKN/icK6Cktmve10LgDUP5UekR3EPrl8sZgpGI0Xv6SrsqP/v2+xR8ASmdZPt3ClZ23gXVDjNG1OV9GV+H8Zf9pcnMQAIpq6k9/Lir/9ARYNsKAGhNO59NX17/pf/+fkwBQVL9YBvORouBptcBZOtSaFixiIGxsv28vwVEAKM0ZHxiUFJWEOTYAf2XTwDGshImmH2ZoUvwFoPxZta2I0bqEshvzjcBlaRjNv1HGSM6ibZLfrNwFgKJankMMiV7aRRPM/uZp2mVpNFMlz7WUcjEuA0BRg2KYFhx99J/ZAjz/Py1m+n9kLGLMIKnX4zYAlIZNPGJOosc4WDxQTp1xHokKyBdvI2OIjeMAUFSliQ8VqAMS399qodafmVe12HpfrIhyDyfKXIrPeQDKGXYDKYToytJuWupovla3pVdEiml2Q943mXwEgKJ6B4kVqw/KD99ibahO5htabwnPV1AscZD8Tdv5CQBFtT9RghTmtZ9Lryqq732VXi5+rxVXqeREexo34SsAFGXsVoCUoDhmn60Kdw9a2O6LKVZGnwI3Y1o34i8AFFV3bTpSjvTgFZYqN2LYwHJFsNLCrKX78Q2fAaAoHZsLZUhZMq7tc+ilEhNINXo57LuWobQgZRds6K+y4zcA5TRZmYjY4FXwZtuOgl1dqNPRdnPwK1aESFzZhMmdeQ8ARWkM8ilE7FDy9PeVo00ENXqsaTJ65e9PS1gSoNBnEMN1VQQEoByD2fcRexQ+C9nnMroD4R+f6XUY7bIv5FkhixW/P9uAcTHICEA5nd0yEcukRfn8aj+gKWEPBM2mA+x/9YlKY7u2mW6dFSkOMQEo7/ba+BcgDBS/uOi+0KZvK57biTVa9bVZ6H7xRTGOOhb42yg4MEJQAMqpNt4/D2GjMDnq7KF1Tj/2ManOlevVTfr86LTu0Nmo5EJ89crzH19N4RKSFYCK58DIo+kIO/mJkYEH1zhNHNG3o3EtVucXtGoZd+w7YqLTmoOBkYn5+GuSfnSkUoOixAWgnErmu5IRl+Snxkdf/uPYnnULHMZb9WpvYtyofq0autoy29Ma2ro1atVvZGzSvpfVeIcF6/Yc++NydHxqPqcFT95lruyuWyQG4HObcO2fiHdKRbmf0lJeJcQ9jo25HRFxOyb2cVzCq5S0T7miUv5L9+faziwITWoAKobDncOKECB5hV+YM0sTIQQHoKKvPOrgc3D7vzw/OIq9MQ6yA1CB4UQPCMH/zfeYyO5yCPID8CUEL8D8F2ybL5wAVNDI9rAah+DFYdtGWGQVTgDUNwTYzBdeACqobbUy8JW6eP8qcKUV3lPYhReAz9SxWPz7C7EqWy9+8ftiCw6+hhBoAD6jb+588mmZ6nlf9vSkszlXW+YIOQCf0e0150hkjqp4nxN5ZE4vTvfIEHwA/sLIaqFnRKqQrU+N8FxoxcPn0CoSgC+Tr6bjV3pFfhSW8x8jvVaON63Ol2YqFYAv1Ooxed2pe9mkO59979S6yT343gtFFQPwhbpmk1d7BN9LJayZWJZ6L9hj9WQzQk7NUOEA/LO8oFHXHxzXHg6Jfc9jFMrex4YcXuv4Q9dGhB2bpQYB+D9ajbuNmrX+yLlbz9I4mc8vTXt269yR9bNGdWtM7FfNahWAr9DQb9qh7whbp6Wb3X1Cbj56nc3CqJI4+/WjmyE+7puXOtmO6Nuhqb4Qtj5V1wB8g2ZNo++6mluNneo412XxirUbtu5yO3T0hO/ps+fDrt+Kvv8oLiEh7tH96FvXw86fPe174ught11bN6xdsdhlruPUsVbmXb8zqinI7YwgAGoOBAACAAGAAEAAIAAQAAgABAACAAGAAEAAIAAQAAgABAACAAGAAEAAIAAQAAgABAACAAGAAEAAIAA0A5ALsgqHXAwBQNqgq1DQRjgCUA+EFQr1sASgNQgrFFpjCYAJCCsUTLAEoDoIKxSq4whAAegqHAowBCBfA3QVChr5OF4BTUFYoWCEpQ0wFIQVCkOwBMAZhBUK87EEwBOEFQpHsATgHbQChdIGfIslAKgHSCsMeiI8AdgE0gqDbZgCkFIZtBUCVd5jCgCaBeIKgVkIVwCSYUmAANBKxBYAtBzkJZ9FCF8ACmFKmHia5WMMALoMApNOKMIZAOQECpPNzwhvAIp6gcYk002EOQAopSGoTC71XiPcAUAPa4LOpFL9LsIfAHSzKihNJpWvIi4CgEJgPIhIKgUibgKAfCEBJPrvhbgKALqkB3qThm4Q4i4A6B70BQijbiTiMgDoXXfQnCQ6yzt2le0AoMLJoDo5TChAXAcAoR2VQHgy0Nwi3y0MAUAX64L2JFA7FPETAPR+GKjPPxbvEF8BQOiQPhjAL3p76R2MhSkA6N1o8IBPhibTNApXABA63QBs4Is6J2nbhC8A6NN0cIIfbNMRCQFA6GobMIN7WoQy8QhrAFDJntpgCMd9v11FiJwAIJS9EuaHOKT6qmyGBikfgLwk2XdImw9fjnFEFWc5L/+kPBx7Bde5Lidkr+xhcJgDtGa8kWPE9Tp4NovWPiTvORM3FvYQwIzGT8/lueCujW238Dkl8m5+zwaeAjjtt34gz4FiRwrjdvGDMuW2NpJdYdkwJvRmx8uVP92cwhkAyuSp/AZnnlsrMIt9jLdnydf+oTGFNwBUjT9o9DnEIRZgGLv0/aOUhvD+1SjcAaCoaTl0+p1PHODzAdbQmXKPjua5/wzK4z0yptlNWkMPGRsbg3VsYLgqlZbgt5pT3ASAqrS8mFaJysLsYItxZcf87MLKaIldvOyr/hf2Q6O6xNEcgSzwHQlfkSiM9kjfAppCPzX9+h/xnxqmu6OEZslQxn74pFwheu3PoKtx6a4qFLcBoKjvb9CfiUhYD+fNMKT1+gT6+t7q9J//5uTcQA27NAazUTHzYeUQbRrMj2Eg7Yep3wzAc3RwpIF7GYNyll6YDFPGdMb7Jl8oZSLrHgkLczk7ObTbXUaT0qIwF1g8JPvJ73xJxEjSiA6SLsPd0bGadsmIGUkHRlQDoyVRdbhbIkMxEyZKvhSXZwdXnp/GsNRIdMkZGoX/weSXC4VMdUxxktbF5vbw6OqrcxBjEveP0AXb/6LK0D0vmCuYuUS6gFyfHl53l4h5BZDo4nx4EFDNZocUKCBe/kZZs+7cHx9v5FmMFCHBfVJz9TW/8bg9cQrJVuQmu1PNfQDKK7M9BynG+4AFvdRuQalW1198XysoWNYWQzlX5yMAFKW/OAUpSlHkjh/VZtuZWsM3Xs9XWKq3C2vIvQM/ASjvEUx/hpQgyXt2ZxVfUqjx3XTPZ2IlNHpip0PjNnwFoLyCo24hpci9st5KRRcVVhuwPCRTOXUiRtBbds1fAMrpcjhPuVoicZz/autWqvQsMBq2+MSDEiVlyT9Ke2cuXgNAUTVmPUDKU3j/t4VWTYRufd0Bcw/dzmZBjj9nM9iMg+cAlNPzWAFihaybB+f0F+Snp3o9f959+T07KuQf68no3vwHgKJq/vIEsUZq2C777oKZQtDpMHFTUJKYtdr/OYfpTjwkBKAcM7c0xCLi1+HH10ztZ6RJrPP1uo9fcvDi8xI2a52234x5QQgJAEVpDfPOQ2xT/PLy4eUTzRqS8x2iQWdr133Bj/NZr2qO11AtRQpETAAqOj+2ISUIC4XPQg8snjy4fR2+kqBn0sdm3s7A2Cw89RMF2Cj6bQVJAahoCc++jXBSmvrgote2hVOGdGqohf/X3sZ83Nz1HmejkvKx1unSNCW24CMsABUzBTMCshEHiDOeXD11YNNSp0kj+3VqVkeHjd95wzbdLcbaO6/eeez8vbfFXNQi83e7+kqVmbwAlKNtvvkh4hpR2svY8CBv9y0r5js5TJv804+jhlkO6NOzS8e2LZs1blC7hq5ujVr1GjVt0bp9p649+w6wsPrBetzEKdMdF6zd5el/MfLx66wyjkssjlnfS+kxMCIDUIGhvX8WAqSS7j25Hhs6ExuAio5Bnw33xWD1t5RFre7BVg+X5ABU0GCqbyY4/jUfvCawOdxJegDKqdRrfQw8CP5q8N9c0YXlnqwAAvB54GyyT4a6u59y1AbD7LdAAlCxfqCV7e5bBerpfcGt3baYVsUKJwB/tQs7Tj94r1idvC++d3B6B4yDVgILwGeq9Jjz29My1fe+7Mnx2d1xr4EVYgA+U73/Qr8k1TU/wde1HycfyAo2AJ+pY7Uq6L2qef/2zHLLWpxJKOwAfKbJmI0h8UWqYH3Ji5D1P3C85F0FAvDXYIHxYMftgY8E2ksofHJ2p5NlCy0ehFOVAPzdV2xkbr/R7362UJzPifXf9HP/xjwuWFGxAPyzrsBs8tqTUQSPHWVEea+d3Kse/0qpaAC+ULPr+OXHbqQQ1GUUp0QcXT6+CzkftKh2AL6gWadNX+uZy3d7X7z/ppB700VvYi/57FnpONa8XT3ivmFRiwD8C71m3YdNXbDZ89ztF/gWHIgzn986e2Sz69Rh3ZuRvd+V+gXga7Qbdhg0fs7a/acCQy7fuPPgacKbtKxChi+MsoKsD29ePomNiggLDvDeu2qWTf/29bUEI4F6B0DKhEM1gwZGLduZ9jS3HPHjBDuHua7L1m7a6ea2c9OaZa5zHewmWI+wMO/ZuZ2JUX0DXaF/lwgBUHMgABAACAAEAAIAAYAAQAAgABAACAAEAAIAAYAAQAAgABAACAAEAAIAAYAAQAAgABAACAAEgH4APoCswuEDhgCIQFbhIMIQAFQVdBUKVRGOABiCsELBEEsA2oKwQqEtlgAYgbBCwQhLACqDsEKhMo4AZIGuwiELQwBKdUBXoaBTiuMV0A6EFQrtsLQBxoKwQuFHLAFYCcIKhRVYAhAAwgqFP7AEIK8KKCsMquZhCQAaCdIKg9EITwCOg7TC4CSmABQ2AG2FgKEIUwDQdhBXCOxAuAKQB48AAdAgD1sAkB/ISz6+CF8A0AjQl3SsEM4AvNIDhclGNwlrAJAPSEw2xxHeAKB5oDHJzEK4A1AyAFQmlz5F2AOAsk1BZ1L5/hPCHwCU1gqUJpPmKYiLAKDkxqA1iTRIQNwEAMUbg9rk0fgJ4ioAKLUT6E0a7d4g7gKAsq1AcbIYKOc4dpYDgMoWguYkMa8UcRsAhLzha2FiqHxcrl3sBwDdhc4AITS6g/gIAHpvCdqTwOBUxE8AkHgPLBTmnSp7xIivACAUbw4O8Eu/eHpOYQoAEh+uCSbwh/5BMeI3AAilwjeDvDHqHW2b8AUAobPQHeCFBv4MTMIZAJTjCnsHcI7W7ExESgAQejFWAyzhlBFPmDmEOQAI3YVBAQ7pf5upP8oHIMNXzi2um4Ex3ND1ohwr/D/i2CxaY5W8Lse578Ec/Hz3h7yu+UoNTLuFW+fJmyM82QIMwovxcXnzfrmj8W0X3/GVvFdNiXcXMAkf7Y8WyXMgsT2F8byAejflNzcirCuBUzjQGHZJvvpXa1M4A0DpeNJocSY51wC72EZ3VhwN6d20KLwBoKgZeXSGhnY3B8vYpPFmOsM++dO//DnWI2NMouj0O8vOwEQha/TwLaGjeVRLiosAUFqraRUH3Z9ZC7xTnupTI2nJXbzy/20v3IdG9XhBb/ip6MxYWDKiFNojfAvoaf306+4X9lPDqnnQHYLM8hygCT4qiNn+dLrrMnb/65fGwbFxFs9pD0O/2doBvGRO63UJtCWO+88321ycG1h5RQHt8qFHi5uAo0yoPy+Gvrp5S/47Hc/NwZHNghnMRomv/wyLx2hSbdKFUgbSnv72x8XVyaGjkpnMSIr+sNEHd+UO+Iz0zmeiarykeXjOjo7V3SRiNCtdEr4YZgxl0GreRWaC5i+TuBiLw7ODjY6WIma88RhdHaz+lqpW+14ylLLksJTlmJweHt3mNNPVKajoiut34PjXtJhzvoCpiuLfpe7VwvHp4V0vIeYkHxihC8Z/7k9Z7o5XQMDQztIvyfnx8QOiFKgBEl2cp/b7DRnPCspXRLub/WRdlfMAUNQPkUghkk46dVLT9QMabX8+Gq+YajFy9uzlIQAU1TdYrFhtUO7ldVZqNkhQbeCK85kKyiUO6S/v8rwEgKLa/1aMFEX85PC01uphftMJ++6XKixU0TEaBzjyFACKarIrDylBRtBSc5VuGer0cPZ/p4xCWVsM6dyHtwBQlMGKFKQUJTF7xhur4ndGDUZtuVGonDavXWmOoPAYAIrS+vGSGClJTqTHLwPrqYr1NXo57L2WrqwmZedH0W4t8xqAimGNLWmIBT5c2TOjp6BHDat0mrwl5BUbWqRuMGZwX74DUP6yG38NsURy8GbbjpWFZn2l1j+uPh1Xyo4E4rCx2ozuzn8Aymm9Ix2xRskzv1XWbQXRQNRqPmyRV2whe3VP22rCtAxEBICitId75yFWeR91aqODhQmR2xFoNu47ZdWx68mlrNY4/9RIBWpLSAAqBjwmBhcj1il7c8Nr7bT+TckYQqzfc8JSj7AXRezXszhoYjWFikROAMqp7RghRngoSbzmu2f5zyO7GXHeRtCs973FJNctx0OfFmCqXNl1B4WX1RMVgHKMFt/FlYF/Rkjiwv324s7CX65v9br4ILUUc31iXBopUVDSAlBOvSk+GYgbshJjw8+d3L9xidOkUQO7tTGsruiwknYt4+97DRlrP3/VjiN+FyOfvi/lpgKZv09rqJzaBAag4vfTc+2dMsQD4tyUuJhrl0LO+Pv8dsR9747N61cvWzh/tsO0SeOtrcfZ2v08a67L4uVrft2yc6/74ePevwecu3DjQWK6iJey3l3fW/mmDZkBqKCO7ck0BEibC/GZzM7wJ7kBqHgQdFsVWQZmf9Pmi1rTg7VvqIgOQAW1fvrtPXj+1aC318TabOpLfADK0eiy/GYpWI9Q6a0VXdme/RRCAD7PHY/zfKreb4OkY+MMMAgrlABUUH3AIv9kdfQ+5dzKoXUwiSqkAPw1SjB8TYga9Q4yL20Y3QinnoILwGeMbbZey1F173PDd/yEfzNFYQbgcx+x7VS3aJFqei+6s9+uHTe7ZQg3AH+tJuk669hjlWoclj484thFmzsFBR6Az+j1m7snOK5I6NYXvwjdN7c31ytZVCEAX14JxoNnbgt8lC885wsen90xy7I5P0sWVCcAf48aGfaz3+h3L1sIzmff99s03bwxryvbVS4Af1PXbNKak1EZZDqfHnVyzWSzuiTopLIB+IJ+l/HLj4bGJOeR4Hvhm/uXji4b14Wk7W9UPQD/ULWJqaXtvPUHT4c/SeNwYkGcGX/zzOFNLlOsuhnrkaiL2gTgX+2E2q37jJ6xdIfX+ZgkDI8G0dvYMJ+9K2eN7d+uPvHfs6tlAP5FlSadLcdPnTHHdemajTv2eRw/FRAcFh51/8mL1+8/FUh5VohFOenvkuL+jLl17cK5097HDu3dvmH1Upc5DpOHdW8mrA+UIACyqVS1Zr0mLdp27tFv8OB+PTu3a2nUwKCatgpVEAKg5kAAIAAQAAgABAACAAGAAEAAIAAQAAgABAACAAGAAEAAIAAQAAgABAACAAGAAEAAIAAQAAgABAACAAGAAEAAIAAQAAgABAACAAGAAEAAIAAQAAgABAAC8B8+gazC4ROGAKAWoKtQMEE4AjAfhBUK85UPwB/fXiIChBUKEd+6F8DwEju+vURZfVBWGNSXsMPaHobXsJPw+bQDSCsMHCSYN4fhNfQkbNl5EaQVBhe/9a6I8UEUByVseVcbtBUCtSUc1HeK8VXMJDxG3EFcIeAuwToL5pd5KWEPFTNQl3zMJJzQ90aBLYpXS8jRn1qgL+lo/SnBuI0KXKiFpH2UFoHApLNIkm+tFbnSTQkXyjcGhcnGWNK2ypEKXWqmpCidB4nJ5rwk12YqdCkDiec2bAONSWabxM1sayp2MX+J2ykuAZXJZYlEy3wVvFobyac1wIgwsThIPq6ks6LXWy/xemU2oDSZ2Eg+Zme7whes8kLiBYssQWsSsZT8xE6qpvglLSTvqpzXC9Qmj15Stki3UuaiPlLOw5kIepPGxALJXp1S6qr1P0nZPX+rJkhOEppbpR1SquQynpnSzk8IrQmqk0PNUGk+TVfyyhq3pV35+XegOyl891yaS+FKH17W5K3U49FGgvJkMFLqcXrvjZW/egepVxevhIYACa//lWKpJ1WbsnGDQcVSD1KK7gD6802HaOnH1rI0YDNJLP0WG6qABXxSZYP0nyeawtZdlsg4TS3eHFzgD/N4GdYsZe8+B2QdouihD0bwg76HWIYxbizeqdJZWUcqpliDF3xgnSLLlQBWW+i6N2WeqnmmFdjBNa3OyLTkBsuNs6p+Mm9X4tEYLOGSxh4lsn+S1di+o8ZGOWdob4fvhjij9vZC2W5swzFCY1cs+6bZK/XAGi7QW5kt24ni6Xhu3D9TzgHbafMqgz24qTwvTY4NmQOwtTteyDtjPdmuEliEk0p2yfI8eI6xRV47Qt7dUaILDAvg6/i7JMo14FotnCXQ8ZJbAJS7DzqFeB7A+3Llq++pjbkUDjQKIQ6xALvYxiJELF/5vFn4C2J8DdHgyUxd8Iw9dGc+oaN6RHMuCqPxSz6dwnzc3ASMY4cmmz/SUbxgPlfrM1reolMeVBI4RgfcU7rZNSawhJbctzlsemkuEtEqE8pw6w4WKkN3twx6SosWcrs8q+1dRJNnS+FVoOijf+kzuipHt+W6cFori+kWruzKVBgkZoze1CtldBUuWs7H+Nt3QYg2eV6DYQEpk3fsYK88+uqeb8dTMfvH0C8kendgCDQJ6TX7hhx4x0DYe4P4K6rGxGQGJUU5fpNqgb+yqTXJL4eJpkm2GryWt/KCT0yKi0quOTcHl6XR3PlaCSM5M135n3+ttbMIMePxhh4aYPY3T9MeGx4zFFK0zYCM3P6OmJLq8QNMGn6F/g8eqUw1FJ9oSkz5e1xmHAFUGr3ZEuYLytG13Bxdyly/C52JqkVn7xLmdUDFN9aaq/Uiosrma28UKyLciU7E1cVoZw5ShILLy3qq5RbEWj2XXS5QSLLsbWSuwa65+B1SjJwQ1y7a6mS+dhfXkBwFxXrtUoPcIYypj5CiFEbumdRKDXoHGq0m7YksVFimexMJf1wOvYKU4FPYhlENVdf8hqM2hH1SQh5xyEAB1LLzSRFSircBSwapXCdRf9CSgLfK6VLg2VYglTWYdQcpifiZ18JhTVXijaDRdNhCr2diZRW57SCoH0XbralIeXLvHHUdKuDlBE2Guh69k8uCEG83tRZc5SsN9y9CrJAdecTZspGwat/I0vlIZDY79S/0HSrQz21qzbmLWCPrloertakB6XU2MLV29biVxV6978wS9I6M3+/4gFglKzZw59wR7auRVtFq7UfM3RkYm8VubVO2tqWEjtZwzzTEPml3fDfPtGzJ+0By5ZaWMzf73sFRxfSjw1TkS0vNfjsTER7EGU+untq91H541yYcZqFyk67D7ZfuPnX1SYYYU8USd/ZTre9sO66ORZj5FBfut2/FjB96tKiLYfO6KnVb9Phhxop9fuFxn3DX5P4qldyA0Xh+eCniiOKMxAc3Qk4d2r5qvv3YIWbtmugzWpSqqd+kndmQsfbzV20/dCrkxoPEjGKuSl569ZemlMpSZ9q5QsQTpaLcT+kprxOfP3l4L+rm9bDQoEA/Hy8vH7/AoNCw6zej7j188jzxdUr6p1xRKV9lzA+YovKrJquNORCHAEmf0Oz/oSqlHjSacvw1GP6vxb2etoaUetHS0S8djP+8QNJnejNKLdHo6BKco97mZwbMaUupNVpmK67mq6f52ecXmMIHc5/njTrOOPygVJ28L47Zb9cWzP8Xun1cfBPUwHtx/Im5PWA/RWnjBFarQ9JU1/yUM8ss4LQ1+SOG47ZfU7kUfLiy2Ro21GZA3f6zD1xXiX5i2rX9TuZ1wFGFqDdgzoHwDKFanx5+YHb/uuCi0tQfOMc9QlAx+BjhPmdAPXCOVWp2GuOyN+hRLsnG5z4K2utibQrbYGDtKXSzWXQg9FkhScbnPQ52WzC2C5yZweU4ckOzicvcA2694HEwOSs+wn/fQptu8J7nlapNu4+YvnT3qSuP08u4eL8/vea7Z9n0Ed2MYDiHvEHlBh0sJjmv3u5xKjgiNiFNxIbhJZmvHt++ePrY3g2L7KxMG2mDygJCu7Zxh95Dx013XrXd3fM3H7/A4AtXwm/HxD6OS6hY+5NXVFZWlFexTigh7nFszO3wKxeCA/18fvN0377K+efxw/p2al5Xxc/G/R9KvRYCy/DovwAAAABJRU5ErkJggg==;" vertex="1" parent="1">
          <mxGeometry x="615.39" y="120" width="40" height="40" as="geometry" />
        </mxCell>
        <mxCell id="MZkw5Bfd-R0kXMftx8xv-16" style="edgeStyle=orthogonalEdgeStyle;rounded=0;orthogonalLoop=1;jettySize=auto;html=1;strokeWidth=4;sourcePerimeterSpacing=0;targetPerimeterSpacing=10;endSize=6;" edge="1" parent="1">
          <mxGeometry relative="1" as="geometry">
            <mxPoint x="750" y="394.67" as="sourcePoint" />
            <mxPoint x="820" y="394.67" as="targetPoint" />
          </mxGeometry>
        </mxCell>
        <mxCell id="MZkw5Bfd-R0kXMftx8xv-17" value="" style="shape=image;verticalLabelPosition=bottom;labelBackgroundColor=default;verticalAlign=top;aspect=fixed;imageAspect=0;image=data:image/png,iVBORw0KGgoAAAANSUhEUgAAAgAAAAIACAYAAAD0eNT6AABIEElEQVR42u3deZRd1Xkm/Oc9d75VktBUAg1gDIhBIAbZiBIyQSCW3ST0t771GdImOJ2k0+1lHINGIGYSNiaMFsbYTvdKO72gwb0i0k43sjGOBgxIgjDZ2EICqiSEpNJYUg13PMN+vz9KhQGVSjXce/e59zy/P22r6rnlqnueu/d79hEQEVlUXt96lgnkYeNIyoguHrNg4+9tZyKKArEdgIiiqfuXrRMScbkbghsBxI/8x74ofuInY3eMueylA7YzEjUyFgAiqil9fU6i2JW8ESIrAJxwjP/ZYQAPZMrjHpWrnyvbzkzUiFgAiKhm8mvnXyMw3wNw+hD/yXuA3pG9ctMq29mJGg0LABFVXXnNF84xjnlEVb80wi+x1miwpHnhq2/bfi1EjYIFgIiqpmf95ZPigXsnBN8AEBvllzMAnjIaLG9e+Oo+26+NqN6xABBRxek/zUoWJ4z9uop8W4CxFf7yOQUeyTrJ+2XBCyXbr5WoXrEAEFFF5dfOv0Yk+D5UTq3yt/pQRO/MXLHpCduvmagesQAQUUXk182fI2pWAvhCTb+x6AsaYEnTVZvesv0zIKonLABENCqFta3TROUuFfw1AMdSjL75AMe7pXnBa3tt/0yI6gELABGNiD47J1vMpr4J4HYAY2znOZIqr5CHOR9AdHwsAEQ0LKqQ4rrWLwPyEIBTbOc5hl0ient6waYnRaC2wxCFEQsAEQ1ZYW3rxYCsBDDPdpYh+jdAF2ev3LTRdhCisGEBIKLjKqyfOx0mdh+AG1B/7xsKyDMCXZ65cuMO22GIwqLe/pCJqIb0+dlNhXjzcgFuBZC2nWeUCgB+kEnJd2X+hl7bYYhsYwEgoqPoCjily1pvUHUeAPRE23kqbLcKvp19ceM/yAoY22GIbGEBIKJPKK65dIFCvwfBBbazVJXidYEsySzc8JLtKEQ2sAAQEQCgtL71dGOc+wC91naWGlstfvymzBdf3G47CFEtsQAQRdzh9ZefkDLubQAWAUjZzmOJC8XfZ9zgTrn61R7bYYhqgQWAKKL+sM8vDwFosZ0nFBR71MGK7MFp/12uWxXYjkNUTSwARBFUWnPJQiOxRwCdbTtLSL0poksyV2z6te0gRNXCAkAUIaV1l55pFN+J4D7/SK12gEXpKze22w5CVGksAEQR0P3L1gmJhNwCYDGApO08dcaD4sclLd814ao3um2HIaoUFgCiBqavz0kUelJ/KYp7AUy2nafOdUL1O5lD0x/nfAA1AhYAogZVWnPJQhXnUQVm2c7SSBTYApFlTVds+IXtLESjwQJA1GDK/3rJ2cZxHlbgattZGpmKrDHAojFXbNhsOwvRSLAAEDWInjUXT4wjfhcE3wAQs50nIjxR/KMXS94+dsELB22HIRoOFgCiOqevz0kUu5I3isg9CoyznSeiDgF4MNPZvVKu2+zaDkM0FCwARHUsv3b+NQKzEsBptrMQAOBdQO/MXrlple0gRMfDAkBUh/JrL7lI4KwEcJntLHQ0FVmjgVnSfNWm39nOQnQsLABEdST/q0unOo7erYL/BO7zh50vip/4Ae4c88WN+22HIfo0FgCiOqAbWzPFotwE4HYAY2znoWHpAnB/pjzuUbn6ubLtMET9WACIQkwVUlzX+mVAHgTwGdt5aFTeB/R2zgdQWLAAEIVUfs28z4vISkAvtZ2FKmqdEWdJ8xUv/9Z2EIo2FgCikCmsnzsdJnYfgBvAv9FGZQA8ZRzvluYFr+21HYaiiW8uRCGhz87JFrOpbwK4A0Cz7TxUC5pXyMNZJ3m/LHihZDsNRQsLAJFlH9vnfxjAybbzkAWCnQK9I71g05MiUNtxKBpYAIgsKqybPxdqVgJotZ2FwkBfhcri7MKNm2wnocbHAkBkQeH5y2Yg7n8X3Oenoykgz4iRZZmrXv7QdhhqXHzjIaohXX95c8G4ywS4FUDadh4KtQKAH2Sc5L2y4IWc7TDUeFgAiGpAV8ApXdZ6g6o8CGCK7TxUV3aJ6O2cD6BKYwEgqrLi2nlXKPA9AOfbzkJ17TWIWZy94pUNtoNQY2ABIKqS0q/mnmFi8e8Ceq3tLNQw+uYDnOCWzIJXPrAdhuobCwBRhXW9NH980jW3AlgEIGU7DzWkIoDHMin5rszf0Gs7DNUnFgCiCtH1l8cL6v6VKO4FMNl2HoqEDhXckz047b/LdasC22GovrAAEFVAac0lC1WclQqcazsLRdIbAizJXLnxRdtBqH6wABCNQnl961kmkIdV8Me2sxABWO2oc3N64cvbbAeh8GMBIBqB7l+2TkjE5W4IbgQQt52H6GNcKP4+4wZ3ytWv9tgOQ+HFAkA0DPr6nESxK3kjRFYAOMF2HqJBHITqvZlD0x/nfAANhAWAaIjya+dfIzDfA3C67SxEQ6XQd1SxtHnhpl/azkLhwgJAdBzlNV84xzjmEVX9ku0sRCOlImvixrk5tfCld2xnoXBgASA6hp71l0+KB+6dEHwDQMx2HqIK8KD4cTmWvHv8ghe6bIchu1gAiD5F/2lWsjhh7NdV5NsCjLWdh6gKDkH125lY6oey4AXfdhiygwWA6GPya+dfIxJ8Hyqn2s5CVANbVbCs6YqNP7cdhGqPBYAIQH7d/DmiZiWAL9jOQlRrKrLGiC4es2Dj721nodphAaBIK6xtnSYqd6ngrwE4tvMQWeSL4id+MnbHmMteOmA7DFUfCwBFkj47J1vMpr4J4HYAY2znIQqRwwAeyJTHPSpXP1e2HYaqhwWAIkUVUlzX+mVAHgJwiu08RCH2HqB3ZK/ctMp2EKoOFgCKjMLa1osBWQlgnu0sRHVkrdFgSfPCV9+2HYQqiwWAGl5h/dzpMLH7ANwA/s4TjYQB8JTRYHnzwlf32Q5DlcE3Q2pY+vzspkK8ebkAtwJI285D1AByCjySLY/7O84H1D8WAGo4ugJO6bLWG1SdBwA90XYeogb0oYjembli0xO2g9DIsQBQQymuuXSBQr8HwQW2sxA1PNEXjMji5gUbf2M7Cg0fCwA1hNL61tONce4D9FrbWYgipm8+wPFuaV7w2l7bYWjoWACorh1ef/kJKePeBmARgJTtPETRpXmFPJx1kvfLghdKttPQ8bEAUF36wz6/PASgxXYeIvrILhG9Pb1g05MiUNth6NhYAKjulNZcstBI7BFAZ9vOQkTH9G+ALs5euWmj7SA0MBYAqhulNfNnGtF7uc9PVDcUkGcEujxz5cYdtsPQJ7EAUOh1/7J1QiIhtwBYDCBpOw8RDVsBwA8yTvJeWfBCznYY6sMCQKGlr89JFHpSfymKewFMtp2HiEZttwq+nX1x4z/IChjbYaKOBYBCqbTmkoUqzqMKzLKdhYgqTPG6qLM4c9XLL9uOEmUsABQq5X+95GzjOA8rcLXtLERUdavFj9+U+eKL220HiSIWAAqFnjUXT4wjfhcE3wAQs52HiGqmCOCxTDm4T65+tcd2mChhASCr9PU5iWJX8kYRuUeBcbbzEJElij3qYEX24LT/LtetCmzHiQIWALImv3b+NQKzEsBptrMQUWi8KaJLMlds+rXtII2OBYBqLr/2kosEzkoAl9nOQkShtdoBFqWv3NhuO0ijYgGgmsn/6tKpjqN3q+A/gfv8RHR8HhQ/Lmn5rglXvdFtO0yjYQGgqtONrZliUW5S4FsCjLWdh4jqTidUv5M5NP1xzgdUDgsAVY0qpLiu9cuAPAjgM7bzUHiZvAdTdBCfxIUhOjYFtkBkWdMVG35hO0sjYAGgqsivmfd5EVkJ6KW2s1B4qWvg7umFf6iE0ltpJD+TQNPcNJwmx3Y0CjEVWWOARWOu2LDZdpZ6xgJAFVVY2zoNkL8DcAP4+0XHoEbh7yvA25+Hmr4nxpbeTAMAJA5kzksjfX4SEuOvEB2TJ4p/9GLJ28cueOGg7TD1iH9dVBH67JxsMZv6JoA7ADTbzkPh5XeV4e7uhbqf3MrtLwD9nCYH2TlppE5P8J2KBnMIwIOZzu6Vct1m13aYesI/KxqVj+3zPwzgZNt5KLxM3kN5dy9M3hvwv/90AeiXOCmGprkZxCZyPoAG9a6qLmtauGm17SD1ggWARqywbv5cqFkJoNV2FgovdQO4e3LwD5UG/d8dqwD0S52eQPbiDJwM37bo2FRkjQZmSfNVm35nO0vY8S+Jhq3w/GUzEPe/C+7z0yAG2ucfzPEKAABIQpA5N8X5ADoeXxQ/8QPcOeaLG/fbDhNW/AuiIdPnZzcV4s3LBbgVwPHfrSmy/EOlvn1+f+iPfB9KAegXG+sg+7k0kqcmbL9UCrcuAPdnyuMelaufK9sOEzYsAHRcugJO6bLWG1TlQQBTbOeh8Ap6Xbi7e2GK/rD/7XAKQL/E1DiaLskgNp63DdKg3gf09uyVm1bZDhImLAA0qOLaeVco8D0A59vOQuFlyj68jhz8rpF/yBpJAQAAOEBqZhJNF6UhnA+gwa0z4ixpvuLl39oOEgb8a6EBlX419wwTi38X0GttZ6EQ8w3c/QX4+wtQPf4+/2BGXACOkJQgMzuF9LkpCBcE6NgMgKeMBsubF766z3YYm1gA6BO6Xpo/PumaWwEsApCynYdCSgG/swh3T25Y+/yDGW0B6Bcb56Dp4gwSJ8dt/oQo9DSvkIezTvJ+WfBCafRfr/6wABAAQNdfHi+o+1ei+A6AFtt5KLyCXhfl3b3QEezzD6ZSBaBf33xAGrHxPD+ABiHYKdA70gs2PSmC0S1j1RkWAEJpzSULVZyVCpxrOwuFlyn5cDtyCLqrM0xd6QIAAOIAqbOTyF6UhiT5dkeD0Vehsji7cOMm20lqhX8REVZe33qWCeRhFfyx7SwUYoGBuzcP70AB1fx8VI0C0E9SguyFaaTPSfJdjwajgDwjRpZlrnr5Q9thqo1/ChHU/cvWCYm43A3BjQC4UUoDU8A7WIC7Jw8EldnnH0w1C0C/2AkOmuZmkJjOX3saVEGBh7IZfUDmbSraDlMtLAARoq/PSRS7kjdCZAWAE2znofAKuvse2GPKwei/2BDVogD0S8yIo6k1g9gY3i5Ag9olorc36nwAC0BE5NfOv0ZgvgfgdNtZKLxM0Ye7qwdBzhv9FxumWhYA4A/zAZk5aTgJvhXSoF6DmMXZK17ZYDtIJfG3vsGV13zhHOOYR1T1S7azUHipb+Dty8PbX0RVN/oHUesC0M/JOshemELqTM4H0KD65gOc4JbMglc+sB2mEvjr3qB61l8+KR64d0LwDQC8D4oGdmSf3+vIDemBPdVkqwD0i02Moak1jcQUzgfQoAoAfpBJyXdl/oZe22FGgwWgweg/zUoWJ4z9uop8W4CxtvNQeAXdZbi7emHc2u3zD8Z2AejH+QAaog4V3JN9ceM/yApUf0q2ClgAGsiRff5HAXzWdhYKL1Pw4O7OIci5tqN8QlgKAABIHEifk0LmghSE8wE0uDdEZXFm4YaXbAcZLv5mN4D8uvlzRM1KAF+wnYXCSz0Dd28O/sFw3tUUpgLQz8kKsp/LIHV6gu+WdDyrHXVuTi98eZvtIEPFX+k6VljbOk1U7lLBXwPgeiUNSI3CP1CAty8PDcJ7J1MYC0C/+KQYmi7JID6F4zQ0KBeKv8+4wZ1y9as9tsMcDwtAHdJn52SL2dQ3AdwOYIztPBReflff/fwakn3+wYS5AAAABEh+JoGmuWk4TezbNKiDUL03c2j643LdqtD+8bEA1BFVSHFd65cBeQjAKbbzUHiZggd3Vy+CfO3v5x+p0BeAIyQGZGankT4/CYnxLZSOTaHvqGJp88JNv7SdZSD87a0ThbWtFwOyEsA821kovNQL4Hbk4B+qv6eb1ksB6Oc0OcjOSXM+gIZitePo4vSCTW22g3wcf21DrrB+7nSY2H0AbgD//6JjUKPw9xXg7c9bv59/pOqtAPRLnBRD09wMYhM5H0CD8qD4cTmWvHv8ghe6bIcBeEEJLX1+dlMh3rxcgFsB1Oc7I9WEf6gEt6MX6tXlrcgfqdcC0C91egLZizNwMnxbpUEdguq3M7HUD2XBC77NIPxNDRldAad0WesNqs4DgJ5oOw+FV5Bz+x7YU7D6HlIx9V4AAEASgsy5Kc4H0FBsVcGypis2/txWAP6GhkhxzaULFPo9CC6wnYXCy5QDeB298LvKtqNUVCMUgH6xsQ6yn0sjeWrCdhQKORVZY0QXj1mw8fe1/t4sACFQWt96ujHOfYBeazsLhVhg4O4rwN9fgGp97vMPppEKQL/E1DiaLskgNp63DdKgfFH8xE/G7hhz2UsHavVNWQAsOrz+8hNSxr0NwCIAKdt5KKQU8DuLcPfkoH597/MPphELAADAAVIzk2i6KA3hfAAN7jCABzKd3Svlus1VP6ubv40W/GGfXx4C0GI7D4VX0Ov2PbCn1Bj7/INp2AJwhKQEmdkppM9NQbggQIN7D9A7slduWlXNb8ICUGPFda1XqjrfA3S27SwUXqbkw9uTa7h9/sE0egHoFxvnoOniDBIn87HDdFxrjQZLmhe++nY1vjgLQI2U1syfaUTv5T4/DerIPr+3Pw803jb/oKJSAPr1zQekERvP8wNoUAbAU0aD5c0LX91XyS/MAlBl3b9snZBIyC0AFgNI2s5DIRWRff7BRK0AAIA4QOrsJLIXpSFJvh3ToHIKPJItj/s7ufq5iiwN8jeuSvT1OYlCT+ovRXEvgMm281B4Bb0uyrt6oRHY5x9MFAtAP0kJshemkT4nyXdlOp42QL9VifkA/qpVQX7dpf9eVB8CMNN2FgovU/Th7u5F0Fv1Yd+6EOUC0C92goOmuRkkpnM+gI5rvfH8xc1f+rffjvQLsABUUPlfLznbOM7DClxtOwuFmK9w9+Xg7S8ichv9g2AB+IPEjDiaWjOIjeHtAjSAI1uGfmfh/0648d3/Z6RfhjWzAnrWXDwxjvhdgeAbADjRQwNTwDtYgLsnBwS88NOxeTt9dO/uRersJDJz0nAS/KxGfYJeF+XdvdCiDwCF0XwtFoBR0NfnJIpdyRtF5B4FxtnOQ+EVdJf77ud3A9tRqE6oAUqbXbjbfWQvTCF1JucDomygI8BllB84WQBGKL92/jXFbrMSgtP4WY6OxRR8uLt7EOQ821GoTpmCQW5DEcWtLppa00hM4dt2lAz2qG/DAlBb+bWXXCRwvgeYP7KdhcJLPQN3bw7+wRK4z0+VEHQG6Fmd53xAhPhdfSuH6g28cijCAlAT+V9dOtVx9G4F/hO4z0/HoEbhHyjA25eHcp+fqsDb6aN7Ty/S56SQuSAF4XxAwzEFD+6uXgT546wcqrAAVJNubM0Ui3KTQr+lwFjbeSi8/K4yvN3c56fqUx8ovl1Guc1F9nMZpE5PcD6gAagXwN2bh3+wOMR/oKNaBmIBOAZVSHFd65eLRXkQwGf4t0XHYgpe3/383OenGjMFRe7FAkrvxNB0SQbxKVycrEtH7hDyOnJH7fMPhlsAVZBfM+/zxXWyEtBLbWeh8FLXwN3TC/9QyXYUijj/YIDun+eQ/EwCTXPTcJo4H1Avgu4y3N29MOXhrxwqhwArp7C2dZqo3KWCvwZGt7RCjWuwqVwiaxRwt3vwPvSQmZ1G+vwkJMa1y7AyJR/u7hyCnlEd688CMFr67JxsMZv6JoA7VNBsOw+Fl9/V19aV+/wUUhoAhbdKKL3nIjsnzfmAsPEN3P0VeuKngjMAI/XRPj/kYQAn285D4WXyHsq7e2GON5VLFBImb5B7sYDy+zE0zc0gNpHzAbb5h0p9HyAq9cRPzgCMTGHd/LnFdWYlgFbbWSi81A3g7slxn5/qlrcnQNe/5JA6PYHsxRk4GS4H1FqQc+HuysEUK/sBgjMAw1R4/rIZiPvfhZobwIUxOgbu81OjKbd5cHf4yJyb4nxAjVR7UFjAcwCGRJ+f3VSINy8H/FsB8LFjdEwVX6YjCgn1FIW3Sii3u8h+Lo3kqQnbkRpS7T5AKAvAYHQFnNJlrTcUVR4UYIrtPBReQa8Ld3fll+mIwiboMehdV0BiarxvPmACb3qqlKC7jPKumg0KcwjwWIpr511RBL4Hxfm2s1B4mbIPryP3iadsEUWB1+Gj6//0IjUziaaL0hDOB4xY34O/ehHk3Fp+W64AfFrpV3PPMLH4dxV6re0sFGJHbsfx9xegyn1+iigDlLe6cLd7yMxOIX1uCsIFgaHzFe6+HLz9RVh48BcLQL+ul+aPT7rmVgMsAjRlOw+FlAJ+ZxHunhz3+YmO0LKi8FoJ5fdcNF2cQeLkhro8VN6R43vdPTnA2oO/OAQIXX95vKDuX4lrvgOgxXYeCq+g10V5dy+06NuOQhRKQbdBz7/m++YDLkkjNp7nB3xa0Ov27fOXbL+PRHwIsLTmkoUl464U4FzbWSi8TMmH25FD0M19fqKh8Dp8dP9LDqmzk8helIYkOR9gygG8jt4wzQtFcwiwtO7SM9XoI0bwx7azUIgFBu7ePLwDBQvbc0T1TQ1Q2uyi3OYhe2Ea6XOSkTw95aPb+vblQzUvJFGbAej+ZeuERFzuNqo3QuovP9XIR/tzeSDgPj/RaGhZkX+liNLWMprmZpCYHp233jCfCxKZkwD19TmJYlfyRoisAHCC7TwUXqN5vCYRHVvQZdDzfB6JGXE0XZJBbGzj3i5gCh7Ku0L//I/GLwClNZcsLHTL90XkHNtZKLxM0Ye7q+b34RJFjrfTR/fuXqTOTiIzJw0n0Tj7AuoZuB3VO763whq3AJTXfOEc45hHjOqXGufXiypNfQNvX97WfbhEkdQ/H+Bu95G9MIXUmXU+H3Bk29Dbk4Nau61v2JkbbwiwZ/3lk+KBe2cgwTego2s41MD6/2A7cnxgD5ElpmCQ21BEcauLptY0ElNCeVkZVNBdhrurF6Y2x/dWjjTQOQD6T7OSxQljv67G/TYEY23nofCq2z9YogYVdAboWX1kPqA1g9iY8M8HmNKR43t76nXbsEHOAcivnX9NEeZRAJ+t51Ukqi5T8ODuznGfnyikvJ0+uvf0In1OCpkLUpAwzgf4Bu6+hrg9uL4LQH7d/DmiZiVgvmA7C4WXegbu3hz8g0XbUYjoONQHim+XUW5zkf1cBqnTE+GYD2i0Y8ClTmcA8r+6dKrj6N2q5q8xytOMqHGpUfgHjhzAUS+DOUQEADAFRe7FAkrvxNB0SQbxKfZGuoKc27dt2EjHgI9yRq7mBUCfnZMtZlPfBPR2BcbU+vtT/fC7+u7nr9FztYmoSvyDAbp/nkPyMwk0zU3DaardZz71ArgduXq5rW+46qMAqEKK61q/XIQ8BOCUWn1fqj+m4PXdzx/uAziIaDgUcLd78D70kJmdRvr8JCRWvX2Bj47v3Z9v5LuEwl8ACmtbLy6uk5UA5tXkR0J1qcGbOhEB0AAovFVC6b0ysnOqMx8QodVDUYWIjGyUsapjGYX1c6fDxO4DcEO1vxfVr4g0dTqO0ptp2xHIgnhLHE1zU4i3jP7zaN9dQr0IctFZPZyUm5GQFS+MaLChKisA+vzspkK8eTkMbgXAv2o6Jv9QCW5HL9RrgIlcIho2f7+P7md9pE5PIHtxBk5m+J8V1Qvg7s3DP1hCvd/XN3wHRjxQUdECoCvglC5rvaGozgMCPdH2j4XCK8i5fQ/sKTTQRC4RjVi5zYP7gYfMecOYD+BpoNg1tnvEcwAVKwDFNZcuKEK/B8UF0WtgNFSmHMDr6IXfVbYdhYhCRv2++YByu4vs59JInpo45v826D1yW18p2h8iUqlxMWDXiP7tqAtAaX3r6cY49yn0Wts/CAqxwMDdV4C/vwBVFkQiOragx6B3XQGJqXE0zc0gNuEPq9ym7PedBtrNDxEAEO8t1n4FQNdf3lww7jJjcBugKds/BAov/1CpbyK3EU7eIqKa8Tp8dP2sF6nTE2j6XApedxHe/jwXmT8mlnRHXABGPDyw92eH7i69Xb5LDXjxpwEFvS6KWzpR3tHNiz8NTjTInJO4NTbW4cc6Okq5zUPu9Ty8fbz4f1reZEd8HR/xP/QP+rnCayXp/t+98HZGew+GPsmUfJS3d6HUdjjy+3M0RCo66Y7fPIgLkxPSMxP/00kLGyN9kvJO8oHE4l7tVwD6Bd0GPb/Ko+e5PILD/JuNtMDA7cihuLWTQ340IlO/9kZh8orffDV+ampmYkb8t3xKCP0BP/oPxCkn7RWAfl6Hj65/6UVuQxFa4v9RkaKAf7CIwjudXKKjiphy5xvtJz7w2wuazs1cHZ8S2287D9mnXAEYkBP37RcAAIAByltdHF7Vi+LbZT69LQKCXheFrZ0o7+zhPj9V3ITbXn/upJVvT+F8AIF3Dw3IdYKQFIAj1FUUXiuh+3/n4G6PzpGMUWLKAUrtffv8yn1+qjLOB5BwBWBADpK1HwIciv57OXt+kUfQ2fAPZYgGX+Hu7kXxnU4EPfxARrXD+YCI4wrAgMQLyxbAMXh7fHT9Sw65XxdgCvw/sS4p4B0oIP/OAXj7C+BGP9nC+YBo4gzAwBzHhLsA9Cu3eeha1YPim5wPqCdBdxnFdw7C3dUL8P83CgnOB0QMVwAGJE68PgoA8IeznrtW5VB+3+MHyRAzBR+l9w+htK0LpvGfq011ivMBUcEVgIF4MOGcARiMyRvkXiyge3Ue/n5eXMJEPYPyzh4U3z0UqedqU/3ifEDj4zNEBub4sfpZAfg0f7+P7tU59K4rwORY3m1So/D25VHcchD+wSK4PEP1hvMBjYt3AQxM6mUG4JgUcLd76HqmF4XXSlCPF55a87vKKG3phNuR43wG1T3OBzQgrgAMqP4LwBEaAMW3y+h6phflra7tOJFgCh5K7x9CeTv3+anxcD6gcfAugIFJUMdbAAMxBUVuQxHd/zcHbx8PmakGdQ3KO7q5z08Nj/MBjYIrAAPxVetvCHBIL+xAgJ7VefT8Ko+A8wEV8Yl9/kMl23GIaobzAXWOKwADEsdprBWAT/N2+uj+5775AMP5gBHzu8oo9u/zG/4cKZo4H1CfeBfAwEQaZAZgMOr3zQd0P5Prmw/g78KQmbyH4nt9+/zKfX4iAJwPqDe8C2BgYrTxC0A/UzDIbSii6//k4O3hxWww6gV9+/zvHYLJc5+f6NM4H1BP+KlvIIE0+BbAgC+6M0DPL3J98wE9LO8fp0bh7cmj+E4n9/mJhoDzAXWA1/8BCRp0CHAo+ucD8q8UobxzEP6hEoqbD8Ldy31+ouHifEB4cQRgYCIR2gIYiBqgtNnF4X/qQWmzC0RwQSDodVHcegjlHd1QP4I/AKIK4nxACLEADEhMBLcABqJlRf6VIrp+1gtvZzT2vE05QHl7F0pth2GK0XjNRLXA+YCQYQEYWBTuAhiOoMug51cF9DyXR3C4QQcFfQO3I4fSlk74XVypJKoWzgdQmJkoDgEOhdfho/tfcshtKEKLDVIfFfAPFlHY0glvX573xhLVCOcDLONb3TFEeAjweNQA5a0uDv9zL4pvl6F1vJsX9LoovNuJ8s4e7vMTWcL5AEtYAAYUqXMARkrLisJrJXT/7xzc7fW1V25KPkrb+vb5tchnIxDZxvmA2uNi58CEWwBDF3QH6F13ZD7gUMjLe2Dg7u5FcWsngm6uOBKFDecDaogNYEAm6rcBjoTX4aPrZ73I/boAE7b5AAW8AwXkN3fC21/g0hdRyHE+oAZ4FPAxcAZgxMptHrpW9aL4Zhka2L/SBt1lFLcchLurFwhCvkJBRJ/A+QCqNTHCFYDRUE9ReKuErlU5lN+3Mx9gSj5KbYdR2tYFU27QWxeJIoDzAVVi//NZOHELoDJM3iD3YgE9P88j6KzNRVj9I/v8Ww4h6OVZxkSNgvMBFcYZgAFxCLDCvL0+uv4l1zcfUKjSKt6Rff7i5oN9+/yst0QNifMBFcIZgAEZ3gZYHZ+YD6jg3XdBdxnFd/r2+fnAHqJo4HzA6HABYGCRfhpgtamPvvmAZ3r65gNG8UtoCh5K7x/Z53e5z08UNZwPGAU2gIEJhwCrzuQVuRcL6H42B3/f8C7e6hmUd/ag+O4hBDnu8xNFHecDho8bAAMTgAWgVvwDAbp/nkPvugKC3sFX8dQovH15FLcchH+waDs6EYUM5wOGjgsAx6BcAagtBdztHrr/uReF10pQ7+jfTL+rjOKWTrgduVCcL0BE4cX5gCHgT2VAPAnQEg2A4ttldD2TQ3lr39J+kHdRfPcQytu7oNznJ6Ih4nzAcfBz1EAOxmBeHek/jttO3whMwSC3oQhvnwsZm7cdh4jq2JQ732gHcMGB+87/E3+f/qN/IJhkO1MYcAvgEzwBfhSLBSvGL/6ga6RfhAWggtRVDqoQUUVM/tZvVwOYfPDeC25xdwXfDnpMynYmCoV1McXNE5a3/360X4iLTEQ1YooCtz3JA01oWDgf0Id/NWhTkesmL2u/shIXf4AFgKj6fMDbGYe7NQnT7UC5mUnDxPkARHgIUPNQuSeXC85rWdq2qpJfmVsARNViBP6BGIK9cejH5kH5SYZGqn8+4ND9n/t35X3u//D3BS22M9VKBGcAVIBnRGTpxGVtO6vxDVgAiCpNAdPlwOtIQMsy4H/PFkCjMeG2158DMCVy8wFR+dtRvG4c3DxlafvGan6bKC4kEVWNyQvK7yfhbk8OfPFHJD/JUJVEbz6g4a/+ewB8bVK+fW61L/4AVwCIKkI9gb87juBwbAj3Kwt4UzNVytSvvVEA8NV935mzQnP+P3u7/fMbdb9c0bB3Wnki+LEk5M6JN7X11OqbsgAQjYIGgmBvDP7++DCu6bz4U+VFYT5AVABptL8fWW0MFk25pa291t+ZBYBoJBQIOmPwOuKAP7zPJKJcAaDqaez5gIb6u3lXgcUty9qesxWAMwBEw2R6HbhbUvA+TAz74g9wBoBqoxHnAxrkb+ewqN42KZee3bKs3drFH+AKANGQmaLA70jAdLM3U31ovPmAul49MwCeChTLTly+LRSPgGYBIDoeH/D2xBEcjFXmFL+6ff+ietUo8wFSv0sALxgxi6Ys3f5b20E+jgWA6FiOcZDPqNXtexjVu3qfD1AVSH39Ae0Swe0Tl7Q/KSEMzrVMok9TwBx2UN6ShL+7whd/ohBoxPmAUBEUoHJPySnPnLS0/YkwXvwBrgAQfYLJC7zdCWiumt24rvcxqUE03nxAWMjquAZ/M3759h22kxwPCwARhnuQzyi/lzbsYSZUh+pqPiDMvVnwpgZmUcst21+yHWWoWAAo0kZ2kM/o8BwACqO6mA8I4Z+NAp2AfmfyjG2Py3Woqw1DzgBQNCkQHIyhvDkJf1/tLv4ffXOikOJ8wJB5Ings7utpLcu2fb/eLv4AVwAogkyvA39nAqZkZyG+DieZKWLCOx8QmtWzNY4jiyYuadtsO8hosABQZPAgH6LhCdt8QAjmZ95XkdtblratshujMvhOSI3PB7ydcbhbk+G4+NfvYSYUURNue/25k1a+PSVzTuLW2FinbCuHVOIgrhHRPFTu6UrKeY1y8QdYAKiRGYG/L47y5jSCA/HKnOJXAWL7MwzRCNmfD6h5eVYAT5q4njZ5eduKM25qs1Z+qoFbANR4FDBdDryOBLQcvottCJYxiUYsvPMBFfeaI3LTxKVtr9gOUi0sANRQanOQzyjxNkBqAHbmAxyg+sP2HSL427Ae31tJIX6XJBo69QTeBwm476XCffEnajC1nA+o8i6eK4LHEMTPCvPxvZXEd0qqaxr0neBX/n0KwaHqn+JXkcy2AxBVQS3mA6p3/ZfVJhY7e9LS9psn3/pub9W+TchwC4DqkwJBZwxeRxzw62tHXdgAqEHV33yAbDXAoinL2p63ncQGrgBQ3TG9DtwtKXgfJuru4g8gNHcjEFXLlDvfaD/xgd9e0HRu5ur4lNj+Sn3dCt5Bc1ihiyblpp8X1Ys/wBUAqiOmJPB31/9BPspNAIqIij9fQEZdAHwAP/GTcsdJN7UfALbZ/hFZVd/vpBQN/Qf5bAnJQT6jxRUAiphKzQeM8gyt9UbNnMnL2r920k1tB2z/TMKAKwAUXkbgH4gh2BuH1t1jNo4tAsPFREepyHzAyFYAdorgjklL25+w/TMImwb4OEUNRwFz2EF5SxL+7sa6+AN9DwMiiqpqzQccRVCAyj25XDCTF/+BcQWAQqUuDvIholEb0XzA0LqzCvCM4+myCbe1f2j7dYYZ32UpFCJ1kA93AIg+Mqz5gOOvnr1hDL4waVn7dRNu28aL/3E0+DsthV09HuQz+hdtOwBRuEz92huFySt+89X4qamZiRnx3x7ryjTI5X8PgK9NOrl97pRb2jfYfj31glsAZEcdH+QzelF7vURDc7znC+jRJwF4IvixJOTOiTe19djOX29GUQCkZDs81SfT7cDbHYeWIroANcp7mYgaXf98wP4VF97h7fHuML2aAo66g2aNA7l54tK2d2znrVcjfgeePnPzQwL8RwAHbb8Iqg+mJHDbk3Dbk9G9+APgCgDR0LSseOteuSj1h/kAdTwI2qD6J5OXtV81cRkv/qMx6neiPddeONmPl++HyF8g4jMFyZMdOJMKtmOEjnoCvyOOoDNmO0ooxGd4iE9usHsbR0li8vv0BS1fbV6w8Te2s1A4HXj0c2eKl//yxLHZB+Vrb3i28zSCin0U2fVnZ19iNPZDgV5k+0XZwgJwlJLpjv0vd3v8z2Ek0uXw4xIzfMQm+7ZjhMX+REv27eS0MQvQ9370VJCILR1z2Us8qY2oyir2pjz9qS2vzJj5+89zW4AgUIE+E4c5y2tLPMmL/6dwBgAAvFhz8sXs7JZ0ctqYhQBi6Hs/+mrMC94trGm9WddfziFloiqqymbkzmtnTUBC7wbkbxChbQGuAABwZL36sqTllvd/AwC7vjLrChWstR0rTOLTPcRborsFIHHnzdTpJ4yLZRKnHed/utUBbk5fufFXtjMTNaKqTiPtuP68OY6YH0Ix1/YLrYVIFwBBm0K+1bK0bdXH/2MWgKPFp/mIT4neFoAIPkjOGHsgPjHz+WH+09UC/E3myo07bL8GokZS1U/npzz9uzemn7F5HrcFGlq3QhdNmtF+1qcv/nQskdsC6I5PyPw6c37LSSO4+APAnyjwTn7tvBW6/vK07RdD1CiqvjwvK2CmP735CXg4E9DHgGE//4lCSERcFXnAScrJLcu2fV+uQ3TXtIcrOg8DMk42viF77mQ3dcrYPxKR0TwLPivA3UXj/r6wtvVa2y+MqBHU/J2okbcFIrEFIFBR/CwGs2T8su3HXZLlFsDR4if5iJ/U2FsA4jibU58dh9iY5KwqfYu1gcjNY67YsNn2ayWqVzUf0OO2QB2LOS9r4Fw0aVn7/zeUiz9F0t7ktOYN2fMnn1PFiz8AXBlTfauwZt739Rdzx9p+0UT1yMqEPrcF6os4+EBFrpu8+P0v9E/3E31KMTY2/evs+ZPHJFqaLkVtVhcTENxUTMa25tfN+y+6Ijp3HBFVQig2IxtlW6DRtgBEpFdh7po0Y9sPRrrHzy2Ao8VP9BGf2jhbAJKIvZaeOf5EJxmbYTWI4nXE5JvZBRtesf0zIaoHoWjM3BYIF3HEgyOPSALTJy/d9igH/CqsQW4CUMG29Cnj3sieO+nz1i/+ACD4HIxuLKyd90Tv8/NaRv8FiRpbKFYAPq6eDxGq+xUAgUJkddwE36zUHj9XAI4WnxIgPq2ujzI/HJ+U/V1qRvOlgIT1AQ9dAO7PdHavlOs2u7bDEIVR6ApAv3rcFqjnAiBx5xXj4uuV3uNnAThabLKPxIy63ALwnWx8U+qz42c5CWeC7TBD9K4Rvbn5ik3P2w5CFDahLQAAoCvg7H5v1g0KPAJgku08x1OXBcCR3apYXK1DfFgAjhZrCZCYXl8rAJJw3sqcOn6MNMVPt51lhFaLY76ZWfDKB7aDEIVFqAtAv3rZFqinAiCO5BV696Tp7VXd42cBOFp8coD4jPooACLYkZg+tiMxKdNqO0sFFBV4MOsk75cFL5RshyGyLbQX04+bsWrzoRlPv3OzgXMxBK/azlPPRMTXmPMDiWPq5CXtj3DAr/bqYwZQ87Fx6V9nZ7dMaZCLPwBkjpwm+H5xXeuf2w5DZFtdrAB8XJi3BUK9AiBQceRfY0HwX2p5iA9XAI4WmxQgcXJoVwDUSTmvpM+YcIokYlNth6mydYGDm8cs2Ph720GIbKi7AtAvjNsCoS0AidhvtKx/aeMQHxaAo8Um+kicEsIhQEe2pD97gh8bkzzPdpQa8qH4UUnLd0246o1u22GIaqluC0C/nf/hnLlw5AcARvKUsYoKXQGIyT6os2jykvf+l60ILABHi00MkDglRCsAIvuSLdn3ElObL0VIyrQFnVD9TublTT+QFTyZlKKh7gsAACggu6+f9VUADyowxVaOsBQAcaRoYvj25JPaHrK9x88CcLQQFQAv1pzclDzthAsdR8bYDhMSb0DxzezCjZtsByGqtoZo+wLo9Kc3PxGPxU4D5B4AZduZrPwcHAmcZPy/Shwnttzcdr/tiz8dQwimACURey1z9sQ96TPGX8aL/yfMgWBDYe28J3Jr5lr7MEFUCw2xAvBpu/70rJkai68E9Opafl+bKwCSdF6Iuf5fhO0pfVwBOJozPkDyVEsrACLbU6eMORgfn7G+ZVYHcgo8ku3svo+nCVIjasgC0G/3V2ZdYwSPAvhsLb6fjQIgqfh76jtfmbx4y5s1/cZDxAJwNCsFQNAVH5/5berksa0QJG3/DOrMewpZ1HTlhudsByGqpIbYAjiWaT/d/GyPh7MBWQSg13aeSpJE7LAkY/9x0jffPTOsF38amNR2xMw42fiG7KxJfuqUsX/Ei/+IzBToLwpr5z1bfP6yU22HIaqUhi4AADBr1WZ3xtO//74a/ywATyIUO7Aj5zjiIhX/zsTDU1sm3fTeE7bz0EjUaOEtJr9Nnzm+LXPmxEslEQvVmRl16k807m8urJ13v66/vNl2GKLRaugtgIHsvH7WxQB+AODiSn/tam4BiCPGScV/qoF/48Sb2nqq/GOqGG4BHM0ZFyB5WhW3AAR7klObtyVamuYhgn/jNbJbRL+VuWITSzjVrUi+OXzsNMGHAFTsueHVKgCxdPwNp1i69oTlO7bX8udUCSwAR3PGGSRPq8JMmaAQG5t+LX3q2IshkrH9OiNB9AUT4Kbmqzb9znYUouGKZAHot+P688Y7CFYAciOA+Gi/XqULgKTjOySQ6yfevHWjxR/TqLAAHC02NkDi9MquAEgi9lrmjPFTJRWbZvv1RZAvip94seTtYxe8cNB2GKKhinQB6NfxlfPOCsQ8CuCLo/k6lSoAkoj1Ih67bdI3tvzI9s9mtFgAjuaMMUieUZkVAHFka/IzY934uPRs26+LcAiq384cmv64XLeKZ3BQ6DX8EOBQTP3p77bOeHrzlxzFvxfgA1s5JOb4TlP8+xMPT53QCBd/OoZKjKGKHopPyr6YPX/yGbz4h8YEiDxanLj73wrrLrnUdhii4+EKwKfsvLY1g0TPTQDuADCsSd+RrgBITFSyiV8Iyn824WvbGuqBJFwBOJrTZJA8c8QrAF6sObkp9dkTLpCYjLX9WuiYFJBn4MeWZr/44k7bYYgGwgJwDLv+bPZ01eA+AF8d6r8ZSQFwsol3Egb/79i/2fqe7ddcDSwAR5Nmg9TM4RcAiTtvZk4fP1Yy8dNtvwYaKs0r5OFsedzfydXPRfKIcgovFoDj2HX9rAUKfB/AcR+ROpwCIJnE3njKueGEv36noS+OLABHc5oUyTOHfi0QBx8kpo3dk5iUabWdnUbsfRVZ1HTFhl/YDkLUjzMAxzH96c3rp3dMvkiArwEY9YSvJOOF2LjkLZO+sfWkRr/407EMdQhA87Fx6V9nZrecxIt/3TtDVH9eWDvv2dKa+TU5mpzoeFgAhkBeeMGf/vTm/wYPZwL6GDD8p+xJXALnhNT/mHjopHET/vOWh2y/JrJHzXEX3tTJxjdkz23Jpz877o9EJGU7M1XMnxgxWwpr5n1fX76UT2Ekq7gFMAK7/8M5F6ojjykw/+P/+UBbABITdZpSLybiyWvH/NVbB2xnrzVuARxNMgapsweeARBH3kmdeoKJjU2eazsnVd1uEf1WesGmJ0Xq+4hyqk8sACOkgOy+/pwvK+RhACcDRxeAWFNim5OSa0/4q+g+rIcF4GhOWpE851MzAIJ9yanNbTy+N5J+bTS4qXnhq2/bDkLRwi2AERJApz/9zqpYc/psQO4BUAZgAMBpShxyJmavm/D1radF+eJPA9NPXt7dWHPyxex5LU2JlqZLwYt/FP2RI7G3CmvnPdGz/nI+tIlqhm82FbLz+rPPSM9M/Cj+meDX4/9i872284QFVwCOJmlF6pwynGTsldQZ46c5ydgM25koNA6q4Pbsixv/QVagtg+OpshhAaCqYgE4msTQ2/TvUjtSU9Lc56cBaaAbpL3wp9mv/3a37SzUuLgFQFRjGmBM/pflc4pvlqEBZ7/oE9Tbl385//aBM/LFPA98oqoa9RPwiGj41IdTeKuE0rtukL0wFUudlbQdiSwLet0tpW1dBkbn9y3NcoGWqosFgMgiUzCx3IYiSlvdIDs3E0ucFLMdiWpMy8He0gdd7abg8w4QqikWAKIQ8DuDWM8vckhMjWvTJWmJjWcRaHhGi6UdPW8GXaU5APj0QKo5FgCiEPE6fOn6WU5TZyalaU4akuYHwkbkHSj8xt2Vmw4oL/xkDQsAUdgopLzVRbnNNdnz0k76/CQkxiLQCILu8vvlHT2OBuYC21mIWACIwoqDgg3DlLwD7vaeD4OSP8d2FqJ+LABEIcdBwToWGK/0Ye/bQVfpXAC8+FOosAAQ1QkOCtYRBfz9hbfdjtx0hfLCT6HEAkBUZzgoGG5BT/nD8gc9RgMz23YWosGwABDVIw4Kho4p+d2lbV27tRycYzsL0VCwABDVMw4K2uerV9rR/U7QU54FgBd/qhssAEQNgIOCFijg7sm95+4vTBXV823HIRouFgCiBsJBwdoIDpd2l3d2OxpgJjdeqF6xABA1IA4KVocp+D3lD7oOmnLwWdtZiEaLBYCoUXFQsGLUN6a8q/e94HDpDABjbechqgQWAKJGx0HBkVPA3Zt7391bmCrQs2zHIaokFgCiiOCg4PD4h8t73A+7YmpwBtdNqBGxABBFDAcFB2cKXrH0Qc8BLfsn285CVE2O7QBEZIfX4Uv3z3Imt6EILantONapZ0yxvev94ruHUrz4UxRwBYAowlThRH1QUI3C25Pb6e4vTBLgDNt5iGqFBYCIIjso6B8ud5Z39igCMyNatYeIBYCIPiYqg4Km4JXKH3QfMOVghu0sRLawABDRURp1UFC9QMsf9nwY9LgnA+DFnyKNBYCIjql/UDB5ZtKp5xMF1SjcjnxHcCA/SYFTbOchCgMWACIaVL0PCvqdxcPlXb0xGJ1qOwtRmLAAENHQ1NmgoMm55dKO7m51TYvtLERhxAJARMMS9kFBUw7gftizJ8i5JwHgxZ/oGFgAiGhEQjcoGBiUO/L7goOFCQqcZPvnQxR2LABENCrWBwUV8A4Wcm5HDjA6xfbPg6hesAAQ0ajZGhQ0va5f3tHTbbxgou2fAVG9YQEgoso5MihYfs/1Mxek4tUaFDQlH+7O3v59fl78iUaABYCIKi7Im3hVBgUDg/KefKd/oDAO3OcnGhUWACKqmooNCirgdRby7q4coMpP/EQVwAJARFU3mkFB0+v6pR09veoF422/DqJGwgJARDUx3EFBUw7g7ujuDPLeRAC8+BNVGAsAEdXW8QYFfUW5o7fL7yyOBQf8iKqGBYCIrDhqUPDEGLwD+YLbkXegeoLtfESNjgWAiKzyO4NYz3M5zX6+3Gt8HWs7D1FUOLYDEBEBEF78iWqLBYCIiCiCWACIiIgiiAWAiIgoglgAiIiIIogFgIiIKIJYAIiIiCKIBYCIiCiCWACIiIgiiAWAiIgoglgAiIiIIogFgIiIKIJYAIiIiCKIBYCIiCiCWACIiIgiiAWAiIgoglgAiIiIIogFgIiIKIJYAIiIiCKIBYCIiCiCWACIiIgiiAWAiIgoglgAiIiIIogFgIiIKIJYAIiIiCKIBYCIiCiCWACIiIgiiAWAiIgoglgAiIiIIogFgIiIKIJYAIiIiCKIBYCIiCiCWACIiIgiiAWAiIgoglgAiIiIIogFgIiIKIJYAIiIiCKIBYCIiCiCWACIiIgiKG47ABERfYIH6OPw4m/aDkKNjQWAiCg81jiOLJq4pH2z7SDU+FgAiGpNtASRNIztIBQi70F06eSl21bbDkLRwRkAoloT2Z86r4T4FB8Q22HIssOietukXPo8Xvyp1rgCQGSBxID4NB+xyQH8vXEEnQ6gbAMRYgA8FSiWnbh8237bYSiaWACILJKkInGyh9hkgb83AdPlAGo7FVXZOqNm8ZTl29+2HYSijQWAKAScjCJ5qguTd+B3xGF6uTvXgNpU5FstS9tW2Q5CBHAGgChUnCaD5Bkukme4cLKcEmwMmofKPV1JOZcXfwoTrgAQhZAzxiB5pgvT5cDbk4CWOB9QhwyAp9SYW1pu2bbXdhiiT2MBIAorAZzxBqkTygg6Y/D3JKCe7VA0NPqqI86iiUvbXrGdhOhYWACIwk6A2KQAsYkGwYEYvH0xwOOKQEjtEsHtE5dse1KE45wUbpwBIKoXooi1+EjPKiM+zedfb5gIClC5p+SUZ05a2v4EL/5UD7gCQFRvHCA+xUd8QgB/fwz+gTh4qqA1KsAzjqfLJtzW/qHtMETDwQJAVK8SysOEbFK8bhzcPGVp+0bbUYhGggWAqM4ddZjQYe4NVFkHgHsm5dv/QVZw7YXqFwsAUYP46DChFh4mVCVFFXlM/Nh3J9/6bq/tMESjxQJA1GD6DxMyvQ68XQlokdsCoyerA43ddOKyd7fbTkJUKSwARA3KGWOQOrsMc9iB15GAllkEhk3wpgZmUcst21+yHYWo0lgAiBqcM94geUIZpjMGf08cyjMEhuKgQu+dPGPb43IdAtthiKqBBYAoAqT/MKEJAfwDcQR7Y9CARWAAngh+LAm5c+JN7T22wxBVEwsAUZQcOUMgNjFAsC8G/0AMMCwCfWS1MVg05Za2dttJiGqBBYAogiR+5AyBlgD+njiCzhiie3adbFXokpZlbc/ZTkJUS7xPiCjCJNF3hkDqbBfOeANEajFADil00aTc9PNalrXz4k+RwxUAIoKkTd8ZAgUH/u6GP0PAA/CPHpzbpy5rOwhss52HyAoWACL6iJP9wxkCfkccJt9wRWCN48iiiUvaNtsOQmQbCwARHcUZY5A8s/8woTi0WPdF4D2ILp28dNtq20GIwqLu/6qJqHr6DhNykTzVhSTrckqwS1Rvm5RLn8eLP9EncQWAiI7r44cJeR1xwA/9tKAB8FSgWHbi8m37bYchCiMWACIako8OExofwD8YR7A3Dg3nGXnrjJrFU5Zvf9t2EKIwYwEgouGJ9R0mFJ/ow98Xh38gjpA8FLdNRb7VsrRtle0gRPWAMwBENDJxID7NR2pWGbFJASC2ZgQ0D5V7crngPF78iYaOKwBENCr9hwnFWgT+ngRMl1OrUwUNgKfUmFtabtm21/bPgajesAAQUUU4ae07TCgv8HcnYHLVXGDUVx1xFk1c2vaK7ddNVK9YAIioopwmRXLmkTMEdieghYreMbBLBLdPXLLtSZHoPr2AqBI4A0BEVeGMMUidWe47QyA1ymu1oACVe0pOeeakpe1P8OJPNHpcASCi6pFPniHg74lDvWGtCKgAz8TULB+/fPsO2y+HqJGwABBR1X10hsBEA39/DMHeGDQ4ThFQvG4Ui6bc0r7Bdn6iRsQCQES1I4r4FB+xiQGCfTH4B2KAOaoIdAC4Z1K+/R9kRUhOGCBqQCwARFRzElfEp/mItQTw98QRdMYAoKgij4kf++7kW9/ttZ2RqNGxABCRNf1nCMSn+CYOc/b4pdznJ6oV3gVARNZJSs34Zbz4E9USCwAREVEEsQAQERFFEAsAERFRBLEAEBERRRALABERUQSxABAREUUQCwAREVEEsQAQERFFEAsAERFRBLEAEBERRRALABERUQSxABAREUUQCwAREVEEsQAQERFFEAsAERFRBLEAEBERRRALABERUQSxABAREUUQCwAREVEEsQAQERFFEAsAERFRBLEAEBERRRALABERUQSxABAREUUQCwAREVEEsQAQERFFEAsAERFRBLEAEBERRRALABERUQSxABAREUUQCwAREVEEsQAQERFFEAsAERFRBLEAEBERRRALABERUQSxABAREUUQCwAREVEEsQAQERFFEAsAERFRBLEAEBERRRALABERUQSxABAREUUQCwAREVEEsQAQERFFEAsAERFRBLEAEBERRRALABERUQSxABAREUUQCwAREVEEsQAQERFFEAsAERFRBLEAEBERRRALABERUQSxABAREUUQCwAREVEEsQAQERFFEAsAERFRBLEAEBERRRALABERUQSxABAREUUQCwAREVEEsQAQERFFEAsAERFRBLEAEBERRRALABERUQSxABAREUUQCwAREVEEsQAQERFFEAsAERFRBLEAEBERRRALABERUQSxABAREUUQCwAREVEEsQAQERFFEAsAERFRBLEAUFUF4rwFyFMA1HYWIiL6AxYAqqpTnv7d4RlP//4GhbkcKr+3nYdCK7AdgChqWACoJk5+esuL0/dMuhCQRQB6beehUHnBiJlrOwRR1IjtABQ9H/6HM6eKE78fwFdtZ7HCwYfpC0on244RArtEcPvEJe1PinCLiKjWWADIml3Xz1qgwOMAzrGdpaaiXgAEBRh5qBQrPTBjya6i7ThEUcUCQFa9/l/mJKbkyjcCei+AZtt5aiLSBUBWxxH8zfhl23fYTkIUdSwAFAo7//z8afD9v0MUtgWiWAAEb2pgFrXcsv0l21GIqA8LAIXKrj8750pV+SGAM21nqZoIFQAFOgH9zuSTtz0u13HSnyhMeBcAhcr0p95ZC2/shYDcA6BkOw+NmCeCx+K+ntaybNv3efEnCh+uAFBoffin554mMTwG6NW2s1RU468ArHEcWTRxSdtm20GI6NhYACj0dn9l1jUqeEyBz9jOUhGNWwDeV5HbW5a2rbIdhIiOj1sAFHrTfrr5Wac5PevItkDZdh76NM1D5Z6upJzHiz9R/eAKANWVndeffQbg/ADAF21nGbHGWQFQAP9TTXBLyy0f7LUdhoiGhwWA6tLur8y6xgh+CGCG7SzD1hgF4DVH5eaJy9s22Q5CRCPDAkB1a+9XZzd5gVkO6N8CSNrOM2T1XQA6RPC3PL6XqP6xAFDd233D7DMDYx4X6ELbWYakPguAK4K/Vz9+x+Rb3+XDnIgaAAsANQQFZPf1s74K4EEFptjOM6i6KwCy2sScm6csfm+b7SREVDksANRQtv/FBSfEXfceQL4BIGY7z4DqpgDIVnV0ccuS9l/aTkJElccCQA1p1/WzLlDgRwBabWc5SvgLwGGF3jM5d/IPZcULvu0wRFQdLADUsPq3BRR4GMBk23k+Et4CYAA85Sdl6Uk3tR2wHYaIqosFgBrejuvPG+8gWBGabYFwFoD1Rs2iKcu3v207CBHVBgsARcaO68+b48D8CMDFVoOEqwDsFMEdk5a2P2E7CBHVFo8Cpsg45enfvTF95uZWAf4jgE7beawSFKByTy4XzOTFnyiauAJAkbTrz8+aqH7sPgD/GbX+O7C7AqACPOP4umzCbds+tJSBiEKABYAi7cMbzvmCGPkhgPNq9k1tFQDBm6p6c8uybS/X/HsTUehwC4Ai7eT/+c5L0zsmXwTIIgA9tvNUgwKdCl00aUb7xbz4E1E/rgAQHfHBDWefFDPOAwBuQDX/Nmq3AuCJ4MeOp3dNuG1bdw2+HxHVERYAok/Z+ZXz/ghifghgVlW+QW0KwBoHcvPEZW3vVPn7EFGd4hYA0afM+Onvfr2vOX3hkW2BenvwzXtQ/ZPJy9qv4sWfiAbDFQCiQez88/Onwff/DsBXK/ZFq7MC0CWq9x9OOY+ecVNbuaY/JCKqSywAREOw6yuzrlDBDwGcNeovVtkCYAA8ZeJm+ZRF2/fZ/BkRUX3hFgDREEz/6eZ1+5rTs49sC+Rt5+kj/ybqzJu8rP3PefEnouHiCgDRMO24/rzPOmIeg+KPR/QFRr8CsFsE35q4pP1JEajtnwcR1ScWAKIR2v2VWdeo4DEFPjOsfzjyAlBUkceQTt3b8o3NOduvn4jqGwsA0SjsvLY1g0TvrYDeBiA1pH80ogIgqwON3XTi8ne3237NRNQYWACIKmDnDbNOh+IHUHzpuP/j4RQAxRYjsnjKsrbnbb9GImosLABEFbT7K7OuMYLHARz7Aj+kAiCHFObbk0/e9rhch8D26yKixsO7AIgqaNpPNz8ba06fDcg9ANwRfAkfwH/z4JzZsmzb93nxJ6Jq4QoAUZXs+tOzZiIWe1yBqz7xXxx7BWBd4OiiE5ds+53t7ETU+FgAiKrsyLbAjwBMBzBQAWhXkb9tWdq2ynZWIooObgEQVdm0n25+1vXS5wL6GPqW+I/QPFTuyeWCc3nxJ6Ja4woAUQ3tun7WBZrQu1Pnlnsk7t82efGOPbYzEVE0/f9dQbGcII4tjgAAAABJRU5ErkJggg==;" vertex="1" parent="1">
          <mxGeometry x="830" y="370" width="40.5" height="40.5" as="geometry" />
        </mxCell>
        <mxCell id="MZkw5Bfd-R0kXMftx8xv-19" value="New random sample" style="text;html=1;align=center;verticalAlign=middle;resizable=0;points=[];autosize=1;strokeColor=none;fillColor=none;fontFamily=Courier New;fontStyle=1" vertex="1" parent="1">
          <mxGeometry x="640" y="180" width="150" height="30" as="geometry" />
        </mxCell>
      </root>
    </mxGraphModel>
  </diagram>
</mxfile>
